<?xml version="1.0" encoding="utf-8" standalone="no"?>
<!DOCTYPE svg PUBLIC "-//W3C//DTD SVG 1.1//EN"
  "http://www.w3.org/Graphics/SVG/1.1/DTD/svg11.dtd">
<svg xmlns:xlink="http://www.w3.org/1999/xlink" width="316.8pt" height="345.6pt" viewBox="0 0 316.8 345.6" xmlns="http://www.w3.org/2000/svg" version="1.1">
 <metadata>
  <rdf:RDF xmlns:dc="http://purl.org/dc/elements/1.1/" xmlns:cc="http://creativecommons.org/ns#" xmlns:rdf="http://www.w3.org/1999/02/22-rdf-syntax-ns#">
   <cc:Work>
    <dc:type rdf:resource="http://purl.org/dc/dcmitype/StillImage"/>
    <dc:format>image/svg+xml</dc:format>
    <dc:creator>
     <cc:Agent>
      <dc:title>matplotlib-direct-dual-export</dc:title>
     </cc:Agent>
    </dc:creator>
   </cc:Work>
  </rdf:RDF>
 </metadata>
 <defs>
  <style type="text/css">*{stroke-linejoin: round; stroke-linecap: butt}</style>
 </defs>
 <g id="figure_1">
  <g id="patch_1">
   <path d="M 0 345.6 
L 316.8 345.6 
L 316.8 0 
L 0 0 
z
" style="fill: #ffffff"/>
  </g>
  <g id="axes_1">
   <g id="line2d_1">
    <path d="M 162.36 69.192 
L 243.981162 210.564 
" clip-path="url(#p181a0487d7)" style="fill: none; stroke: #4b5563; stroke-width: 2; stroke-linecap: square"/>
   </g>
   <g id="line2d_2">
    <path d="M 162.36 69.192 
L 80.738838 210.564 
" clip-path="url(#p181a0487d7)" style="fill: none; stroke: #4b5563; stroke-width: 2; stroke-linecap: square"/>
   </g>
   <g id="line2d_3">
    <path d="M 200.694115 77.340168 
L 217.757585 239.688234 
" clip-path="url(#p181a0487d7)" style="fill: none; stroke: #4b5563; stroke-width: 2; stroke-linecap: square"/>
   </g>
   <g id="line2d_4">
    <path d="M 200.694115 77.340168 
L 68.628301 173.291599 
" clip-path="url(#p181a0487d7)" style="fill: none; stroke: #4b5563; stroke-width: 2; stroke-linecap: square"/>
   </g>
   <g id="line2d_5">
    <path d="M 232.399913 100.375779 
L 181.955261 255.628455 
" clip-path="url(#p181a0487d7)" style="fill: none; stroke: #4b5563; stroke-width: 2; stroke-linecap: square"/>
   </g>
   <g id="line2d_6">
    <path d="M 232.399913 100.375779 
L 72.724825 134.315766 
" clip-path="url(#p181a0487d7)" style="fill: none; stroke: #4b5563; stroke-width: 2; stroke-linecap: square"/>
   </g>
   <g id="line2d_7">
    <path d="M 251.995175 134.315766 
L 142.764739 255.628455 
" clip-path="url(#p181a0487d7)" style="fill: none; stroke: #4b5563; stroke-width: 2; stroke-linecap: square"/>
   </g>
   <g id="line2d_8">
    <path d="M 251.995175 134.315766 
L 92.320087 100.375779 
" clip-path="url(#p181a0487d7)" style="fill: none; stroke: #4b5563; stroke-width: 2; stroke-linecap: square"/>
   </g>
   <g id="line2d_9">
    <path d="M 256.091699 173.291599 
L 106.962415 239.688234 
" clip-path="url(#p181a0487d7)" style="fill: none; stroke: #4b5563; stroke-width: 2; stroke-linecap: square"/>
   </g>
   <g id="line2d_10">
    <path d="M 256.091699 173.291599 
L 124.025885 77.340168 
" clip-path="url(#p181a0487d7)" style="fill: none; stroke: #4b5563; stroke-width: 2; stroke-linecap: square"/>
   </g>
   <g id="line2d_11">
    <path d="M 243.981162 210.564 
L 80.738838 210.564 
" clip-path="url(#p181a0487d7)" style="fill: none; stroke: #4b5563; stroke-width: 2; stroke-linecap: square"/>
   </g>
   <g id="line2d_12">
    <path d="M 217.757585 239.688234 
L 68.628301 173.291599 
" clip-path="url(#p181a0487d7)" style="fill: none; stroke: #4b5563; stroke-width: 2; stroke-linecap: square"/>
   </g>
   <g id="line2d_13">
    <path d="M 181.955261 255.628455 
L 72.724825 134.315766 
" clip-path="url(#p181a0487d7)" style="fill: none; stroke: #4b5563; stroke-width: 2; stroke-linecap: square"/>
   </g>
   <g id="line2d_14">
    <path d="M 142.764739 255.628455 
L 92.320087 100.375779 
" clip-path="url(#p181a0487d7)" style="fill: none; stroke: #4b5563; stroke-width: 2; stroke-linecap: square"/>
   </g>
   <g id="line2d_15">
    <path d="M 106.962415 239.688234 
L 124.025885 77.340168 
" clip-path="url(#p181a0487d7)" style="fill: none; stroke: #4b5563; stroke-width: 2; stroke-linecap: square"/>
   </g>
   <g id="patch_2">
    <path d="M 162.36 60.876 
C 164.565429 60.876 166.680826 61.752226 168.2403 63.3117 
C 169.799774 64.871174 170.676 66.986571 170.676 69.192 
C 170.676 71.397429 169.799774 73.512826 168.2403 75.0723 
C 166.680826 76.631774 164.565429 77.508 162.36 77.508 
C 160.154571 77.508 158.039174 76.631774 156.4797 75.0723 
C 154.920226 73.512826 154.044 71.397429 154.044 69.192 
C 154.044 66.986571 154.920226 64.871174 156.4797 63.3117 
C 158.039174 61.752226 160.154571 60.876 162.36 60.876 
z
" clip-path="url(#p181a0487d7)" style="fill: #2563eb; stroke: #2563eb; stroke-linejoin: miter"/>
   </g>
   <g id="patch_3">
    <path d="M 200.694115 69.024168 
C 202.899544 69.024168 205.014941 69.900394 206.574415 71.459868 
C 208.133889 73.019341 209.010115 75.134739 209.010115 77.340168 
C 209.010115 79.545597 208.133889 81.660994 206.574415 83.220468 
C 205.014941 84.779941 202.899544 85.656168 200.694115 85.656168 
C 198.488686 85.656168 196.373289 84.779941 194.813815 83.220468 
C 193.254341 81.660994 192.378115 79.545597 192.378115 77.340168 
C 192.378115 75.134739 193.254341 73.019341 194.813815 71.459868 
C 196.373289 69.900394 198.488686 69.024168 200.694115 69.024168 
z
" clip-path="url(#p181a0487d7)" style="fill: #2563eb; stroke: #2563eb; stroke-linejoin: miter"/>
   </g>
   <g id="patch_4">
    <path d="M 232.399913 92.059779 
C 234.605342 92.059779 236.72074 92.936005 238.280213 94.495479 
C 239.839687 96.054952 240.715913 98.17035 240.715913 100.375779 
C 240.715913 102.581208 239.839687 104.696605 238.280213 106.256079 
C 236.72074 107.815552 234.605342 108.691779 232.399913 108.691779 
C 230.194484 108.691779 228.079087 107.815552 226.519613 106.256079 
C 224.96014 104.696605 224.083913 102.581208 224.083913 100.375779 
C 224.083913 98.17035 224.96014 96.054952 226.519613 94.495479 
C 228.079087 92.936005 230.194484 92.059779 232.399913 92.059779 
z
" clip-path="url(#p181a0487d7)" style="fill: #2563eb; stroke: #2563eb; stroke-linejoin: miter"/>
   </g>
   <g id="patch_5">
    <path d="M 251.995175 125.999766 
C 254.200604 125.999766 256.316001 126.875993 257.875475 128.435466 
C 259.434948 129.99494 260.311175 132.110337 260.311175 134.315766 
C 260.311175 136.521195 259.434948 138.636593 257.875475 140.196066 
C 256.316001 141.75554 254.200604 142.631766 251.995175 142.631766 
C 249.789746 142.631766 247.674348 141.75554 246.114875 140.196066 
C 244.555401 138.636593 243.679175 136.521195 243.679175 134.315766 
C 243.679175 132.110337 244.555401 129.99494 246.114875 128.435466 
C 247.674348 126.875993 249.789746 125.999766 251.995175 125.999766 
z
" clip-path="url(#p181a0487d7)" style="fill: #2563eb; stroke: #2563eb; stroke-linejoin: miter"/>
   </g>
   <g id="patch_6">
    <path d="M 256.091699 164.975599 
C 258.297128 164.975599 260.412526 165.851825 261.971999 167.411299 
C 263.531473 168.970773 264.407699 171.08617 264.407699 173.291599 
C 264.407699 175.497028 263.531473 177.612425 261.971999 179.171899 
C 260.412526 180.731373 258.297128 181.607599 256.091699 181.607599 
C 253.88627 181.607599 251.770873 180.731373 250.211399 179.171899 
C 248.651926 177.612425 247.775699 175.497028 247.775699 173.291599 
C 247.775699 171.08617 248.651926 168.970773 250.211399 167.411299 
C 251.770873 165.851825 253.88627 164.975599 256.091699 164.975599 
z
" clip-path="url(#p181a0487d7)" style="fill: #2563eb; stroke: #2563eb; stroke-linejoin: miter"/>
   </g>
   <g id="patch_7">
    <path d="M 243.981162 202.248 
C 246.186591 202.248 248.301989 203.124226 249.861462 204.6837 
C 251.420936 206.243174 252.297162 208.358571 252.297162 210.564 
C 252.297162 212.769429 251.420936 214.884826 249.861462 216.4443 
C 248.301989 218.003774 246.186591 218.88 243.981162 218.88 
C 241.775733 218.88 239.660336 218.003774 238.100862 216.4443 
C 236.541389 214.884826 235.665162 212.769429 235.665162 210.564 
C 235.665162 208.358571 236.541389 206.243174 238.100862 204.6837 
C 239.660336 203.124226 241.775733 202.248 243.981162 202.248 
z
" clip-path="url(#p181a0487d7)" style="fill: #2563eb; stroke: #2563eb; stroke-linejoin: miter"/>
   </g>
   <g id="patch_8">
    <path d="M 217.757585 231.372234 
C 219.963013 231.372234 222.078411 232.24846 223.637885 233.807934 
C 225.197358 235.367407 226.073585 237.482805 226.073585 239.688234 
C 226.073585 241.893663 225.197358 244.00906 223.637885 245.568534 
C 222.078411 247.128007 219.963013 248.004234 217.757585 248.004234 
C 215.552156 248.004234 213.436758 247.128007 211.877285 245.568534 
C 210.317811 244.00906 209.441585 241.893663 209.441585 239.688234 
C 209.441585 237.482805 210.317811 235.367407 211.877285 233.807934 
C 213.436758 232.24846 215.552156 231.372234 217.757585 231.372234 
z
" clip-path="url(#p181a0487d7)" style="fill: #2563eb; stroke: #2563eb; stroke-linejoin: miter"/>
   </g>
   <g id="patch_9">
    <path d="M 181.955261 247.312455 
C 184.16069 247.312455 186.276087 248.188681 187.835561 249.748155 
C 189.395035 251.307629 190.271261 253.423026 190.271261 255.628455 
C 190.271261 257.833884 189.395035 259.949281 187.835561 261.508755 
C 186.276087 263.068229 184.16069 263.944455 181.955261 263.944455 
C 179.749832 263.944455 177.634435 263.068229 176.074961 261.508755 
C 174.515487 259.949281 173.639261 257.833884 173.639261 255.628455 
C 173.639261 253.423026 174.515487 251.307629 176.074961 249.748155 
C 177.634435 248.188681 179.749832 247.312455 181.955261 247.312455 
z
" clip-path="url(#p181a0487d7)" style="fill: #2563eb; stroke: #2563eb; stroke-linejoin: miter"/>
   </g>
   <g id="patch_10">
    <path d="M 142.764739 247.312455 
C 144.970168 247.312455 147.085565 248.188681 148.645039 249.748155 
C 150.204513 251.307629 151.080739 253.423026 151.080739 255.628455 
C 151.080739 257.833884 150.204513 259.949281 148.645039 261.508755 
C 147.085565 263.068229 144.970168 263.944455 142.764739 263.944455 
C 140.55931 263.944455 138.443913 263.068229 136.884439 261.508755 
C 135.324965 259.949281 134.448739 257.833884 134.448739 255.628455 
C 134.448739 253.423026 135.324965 251.307629 136.884439 249.748155 
C 138.443913 248.188681 140.55931 247.312455 142.764739 247.312455 
z
" clip-path="url(#p181a0487d7)" style="fill: #2563eb; stroke: #2563eb; stroke-linejoin: miter"/>
   </g>
   <g id="patch_11">
    <path d="M 106.962415 231.372234 
C 109.167844 231.372234 111.283242 232.24846 112.842715 233.807934 
C 114.402189 235.367407 115.278415 237.482805 115.278415 239.688234 
C 115.278415 241.893663 114.402189 244.00906 112.842715 245.568534 
C 111.283242 247.128007 109.167844 248.004234 106.962415 248.004234 
C 104.756987 248.004234 102.641589 247.128007 101.082115 245.568534 
C 99.522642 244.00906 98.646415 241.893663 98.646415 239.688234 
C 98.646415 237.482805 99.522642 235.367407 101.082115 233.807934 
C 102.641589 232.24846 104.756987 231.372234 106.962415 231.372234 
z
" clip-path="url(#p181a0487d7)" style="fill: #2563eb; stroke: #2563eb; stroke-linejoin: miter"/>
   </g>
   <g id="patch_12">
    <path d="M 80.738838 202.248 
C 82.944267 202.248 85.059664 203.124226 86.619138 204.6837 
C 88.178611 206.243174 89.054838 208.358571 89.054838 210.564 
C 89.054838 212.769429 88.178611 214.884826 86.619138 216.4443 
C 85.059664 218.003774 82.944267 218.88 80.738838 218.88 
C 78.533409 218.88 76.418011 218.003774 74.858538 216.4443 
C 73.299064 214.884826 72.422838 212.769429 72.422838 210.564 
C 72.422838 208.358571 73.299064 206.243174 74.858538 204.6837 
C 76.418011 203.124226 78.533409 202.248 80.738838 202.248 
z
" clip-path="url(#p181a0487d7)" style="fill: #2563eb; stroke: #2563eb; stroke-linejoin: miter"/>
   </g>
   <g id="patch_13">
    <path d="M 68.628301 164.975599 
C 70.83373 164.975599 72.949127 165.851825 74.508601 167.411299 
C 76.068074 168.970773 76.944301 171.08617 76.944301 173.291599 
C 76.944301 175.497028 76.068074 177.612425 74.508601 179.171899 
C 72.949127 180.731373 70.83373 181.607599 68.628301 181.607599 
C 66.422872 181.607599 64.307474 180.731373 62.748001 179.171899 
C 61.188527 177.612425 60.312301 175.497028 60.312301 173.291599 
C 60.312301 171.08617 61.188527 168.970773 62.748001 167.411299 
C 64.307474 165.851825 66.422872 164.975599 68.628301 164.975599 
z
" clip-path="url(#p181a0487d7)" style="fill: #2563eb; stroke: #2563eb; stroke-linejoin: miter"/>
   </g>
   <g id="patch_14">
    <path d="M 72.724825 125.999766 
C 74.930254 125.999766 77.045652 126.875993 78.605125 128.435466 
C 80.164599 129.99494 81.040825 132.110337 81.040825 134.315766 
C 81.040825 136.521195 80.164599 138.636593 78.605125 140.196066 
C 77.045652 141.75554 74.930254 142.631766 72.724825 142.631766 
C 70.519396 142.631766 68.403999 141.75554 66.844525 140.196066 
C 65.285052 138.636593 64.408825 136.521195 64.408825 134.315766 
C 64.408825 132.110337 65.285052 129.99494 66.844525 128.435466 
C 68.403999 126.875993 70.519396 125.999766 72.724825 125.999766 
z
" clip-path="url(#p181a0487d7)" style="fill: #2563eb; stroke: #2563eb; stroke-linejoin: miter"/>
   </g>
   <g id="patch_15">
    <path d="M 92.320087 92.059779 
C 94.525516 92.059779 96.640913 92.936005 98.200387 94.495479 
C 99.75986 96.054952 100.636087 98.17035 100.636087 100.375779 
C 100.636087 102.581208 99.75986 104.696605 98.200387 106.256079 
C 96.640913 107.815552 94.525516 108.691779 92.320087 108.691779 
C 90.114658 108.691779 87.99926 107.815552 86.439787 106.256079 
C 84.880313 104.696605 84.004087 102.581208 84.004087 100.375779 
C 84.004087 98.17035 84.880313 96.054952 86.439787 94.495479 
C 87.99926 92.936005 90.114658 92.059779 92.320087 92.059779 
z
" clip-path="url(#p181a0487d7)" style="fill: #2563eb; stroke: #2563eb; stroke-linejoin: miter"/>
   </g>
   <g id="patch_16">
    <path d="M 124.025885 69.024168 
C 126.231314 69.024168 128.346711 69.900394 129.906185 71.459868 
C 131.465659 73.019341 132.341885 75.134739 132.341885 77.340168 
C 132.341885 79.545597 131.465659 81.660994 129.906185 83.220468 
C 128.346711 84.779941 126.231314 85.656168 124.025885 85.656168 
C 121.820456 85.656168 119.705059 84.779941 118.145585 83.220468 
C 116.586111 81.660994 115.709885 79.545597 115.709885 77.340168 
C 115.709885 75.134739 116.586111 73.019341 118.145585 71.459868 
C 119.705059 69.900394 121.820456 69.024168 124.025885 69.024168 
z
" clip-path="url(#p181a0487d7)" style="fill: #2563eb; stroke: #2563eb; stroke-linejoin: miter"/>
   </g>
   <g id="text_1">
    <!-- 1 -->
    <g style="fill: #ffffff" transform="translate(159.023437 73.129069) scale(0.12 -0.12)">
     <defs>
      <path id="ArialMT-14" d="M 2384 0 
L 1822 0 
L 1822 3584 
Q 1619 3391 1289 3197 
Q 959 3003 697 2906 
L 697 3450 
Q 1169 3672 1522 3987 
Q 1875 4303 2022 4600 
L 2384 4600 
L 2384 0 
z
" transform="scale(0.015625)"/>
     </defs>
     <use xlink:href="#ArialMT-14"/>
    </g>
   </g>
   <g id="text_2">
    <!-- 2 -->
    <g style="fill: #ffffff" transform="translate(197.357552 81.277236) scale(0.12 -0.12)">
     <defs>
      <path id="ArialMT-15" d="M 3222 541 
L 3222 0 
L 194 0 
Q 188 203 259 391 
Q 375 700 629 1000 
Q 884 1300 1366 1694 
Q 2113 2306 2375 2664 
Q 2638 3022 2638 3341 
Q 2638 3675 2398 3904 
Q 2159 4134 1775 4134 
Q 1369 4134 1125 3890 
Q 881 3647 878 3216 
L 300 3275 
Q 359 3922 746 4261 
Q 1134 4600 1788 4600 
Q 2447 4600 2831 4234 
Q 3216 3869 3216 3328 
Q 3216 3053 3103 2787 
Q 2991 2522 2730 2228 
Q 2469 1934 1863 1422 
Q 1356 997 1212 845 
Q 1069 694 975 541 
L 3222 541 
z
" transform="scale(0.015625)"/>
     </defs>
     <use xlink:href="#ArialMT-15"/>
    </g>
   </g>
   <g id="text_3">
    <!-- 3 -->
    <g style="fill: #ffffff" transform="translate(229.063351 104.312847) scale(0.12 -0.12)">
     <defs>
      <path id="ArialMT-16" d="M 269 1209 
L 831 1284 
Q 928 806 1161 595 
Q 1394 384 1728 384 
Q 2125 384 2398 659 
Q 2672 934 2672 1341 
Q 2672 1728 2419 1979 
Q 2166 2231 1775 2231 
Q 1616 2231 1378 2169 
L 1441 2663 
Q 1497 2656 1531 2656 
Q 1891 2656 2178 2843 
Q 2466 3031 2466 3422 
Q 2466 3731 2256 3934 
Q 2047 4138 1716 4138 
Q 1388 4138 1169 3931 
Q 950 3725 888 3313 
L 325 3413 
Q 428 3978 793 4289 
Q 1159 4600 1703 4600 
Q 2078 4600 2393 4439 
Q 2709 4278 2876 4000 
Q 3044 3722 3044 3409 
Q 3044 3113 2884 2869 
Q 2725 2625 2413 2481 
Q 2819 2388 3044 2092 
Q 3269 1797 3269 1353 
Q 3269 753 2831 336 
Q 2394 -81 1725 -81 
Q 1122 -81 723 278 
Q 325 638 269 1209 
z
" transform="scale(0.015625)"/>
     </defs>
     <use xlink:href="#ArialMT-16"/>
    </g>
   </g>
   <g id="text_4">
    <!-- 4 -->
    <g style="fill: #ffffff" transform="translate(248.658612 138.252835) scale(0.12 -0.12)">
     <defs>
      <path id="ArialMT-17" d="M 2069 0 
L 2069 1097 
L 81 1097 
L 81 1613 
L 2172 4581 
L 2631 4581 
L 2631 1613 
L 3250 1613 
L 3250 1097 
L 2631 1097 
L 2631 0 
L 2069 0 
z
M 2069 1613 
L 2069 3678 
L 634 1613 
L 2069 1613 
z
" transform="scale(0.015625)"/>
     </defs>
     <use xlink:href="#ArialMT-17"/>
    </g>
   </g>
   <g id="text_5">
    <!-- 5 -->
    <g style="fill: #ffffff" transform="translate(252.755137 177.228667) scale(0.12 -0.12)">
     <defs>
      <path id="ArialMT-18" d="M 266 1200 
L 856 1250 
Q 922 819 1161 601 
Q 1400 384 1738 384 
Q 2144 384 2425 690 
Q 2706 997 2706 1503 
Q 2706 1984 2436 2262 
Q 2166 2541 1728 2541 
Q 1456 2541 1237 2417 
Q 1019 2294 894 2097 
L 366 2166 
L 809 4519 
L 3088 4519 
L 3088 3981 
L 1259 3981 
L 1013 2750 
Q 1425 3038 1878 3038 
Q 2478 3038 2890 2622 
Q 3303 2206 3303 1553 
Q 3303 931 2941 478 
Q 2500 -78 1738 -78 
Q 1113 -78 717 272 
Q 322 622 266 1200 
z
" transform="scale(0.015625)"/>
     </defs>
     <use xlink:href="#ArialMT-18"/>
    </g>
   </g>
   <g id="text_6">
    <!-- 6 -->
    <g style="fill: #ffffff" transform="translate(240.6446 214.501069) scale(0.12 -0.12)">
     <defs>
      <path id="ArialMT-19" d="M 3184 3459 
L 2625 3416 
Q 2550 3747 2413 3897 
Q 2184 4138 1850 4138 
Q 1581 4138 1378 3988 
Q 1113 3794 959 3422 
Q 806 3050 800 2363 
Q 1003 2672 1297 2822 
Q 1591 2972 1913 2972 
Q 2475 2972 2870 2558 
Q 3266 2144 3266 1488 
Q 3266 1056 3080 686 
Q 2894 316 2569 119 
Q 2244 -78 1831 -78 
Q 1128 -78 684 439 
Q 241 956 241 2144 
Q 241 3472 731 4075 
Q 1159 4600 1884 4600 
Q 2425 4600 2770 4297 
Q 3116 3994 3184 3459 
z
M 888 1484 
Q 888 1194 1011 928 
Q 1134 663 1356 523 
Q 1578 384 1822 384 
Q 2178 384 2434 671 
Q 2691 959 2691 1453 
Q 2691 1928 2437 2201 
Q 2184 2475 1800 2475 
Q 1419 2475 1153 2201 
Q 888 1928 888 1484 
z
" transform="scale(0.015625)"/>
     </defs>
     <use xlink:href="#ArialMT-19"/>
    </g>
   </g>
   <g id="text_7">
    <!-- 7 -->
    <g style="fill: #ffffff" transform="translate(214.421022 243.625302) scale(0.12 -0.12)">
     <defs>
      <path id="ArialMT-1a" d="M 303 3981 
L 303 4522 
L 3269 4522 
L 3269 4084 
Q 2831 3619 2401 2847 
Q 1972 2075 1738 1259 
Q 1569 684 1522 0 
L 944 0 
Q 953 541 1156 1306 
Q 1359 2072 1739 2783 
Q 2119 3494 2547 3981 
L 303 3981 
z
" transform="scale(0.015625)"/>
     </defs>
     <use xlink:href="#ArialMT-1a"/>
    </g>
   </g>
   <g id="text_8">
    <!-- 8 -->
    <g style="fill: #ffffff" transform="translate(178.618698 259.565524) scale(0.12 -0.12)">
     <defs>
      <path id="ArialMT-1b" d="M 1131 2484 
Q 781 2613 612 2850 
Q 444 3088 444 3419 
Q 444 3919 803 4259 
Q 1163 4600 1759 4600 
Q 2359 4600 2725 4251 
Q 3091 3903 3091 3403 
Q 3091 3084 2923 2848 
Q 2756 2613 2416 2484 
Q 2838 2347 3058 2040 
Q 3278 1734 3278 1309 
Q 3278 722 2862 322 
Q 2447 -78 1769 -78 
Q 1091 -78 675 323 
Q 259 725 259 1325 
Q 259 1772 486 2073 
Q 713 2375 1131 2484 
z
M 1019 3438 
Q 1019 3113 1228 2906 
Q 1438 2700 1772 2700 
Q 2097 2700 2305 2904 
Q 2513 3109 2513 3406 
Q 2513 3716 2298 3927 
Q 2084 4138 1766 4138 
Q 1444 4138 1231 3931 
Q 1019 3725 1019 3438 
z
M 838 1322 
Q 838 1081 952 856 
Q 1066 631 1291 507 
Q 1516 384 1775 384 
Q 2178 384 2440 643 
Q 2703 903 2703 1303 
Q 2703 1709 2433 1975 
Q 2163 2241 1756 2241 
Q 1359 2241 1098 1978 
Q 838 1716 838 1322 
z
" transform="scale(0.015625)"/>
     </defs>
     <use xlink:href="#ArialMT-1b"/>
    </g>
   </g>
   <g id="text_9">
    <!-- 9 -->
    <g style="fill: #ffffff" transform="translate(139.428177 259.565524) scale(0.12 -0.12)">
     <defs>
      <path id="ArialMT-1c" d="M 350 1059 
L 891 1109 
Q 959 728 1153 556 
Q 1347 384 1650 384 
Q 1909 384 2104 503 
Q 2300 622 2425 820 
Q 2550 1019 2634 1356 
Q 2719 1694 2719 2044 
Q 2719 2081 2716 2156 
Q 2547 1888 2255 1720 
Q 1963 1553 1622 1553 
Q 1053 1553 659 1965 
Q 266 2378 266 3053 
Q 266 3750 677 4175 
Q 1088 4600 1706 4600 
Q 2153 4600 2523 4359 
Q 2894 4119 3086 3673 
Q 3278 3228 3278 2384 
Q 3278 1506 3087 986 
Q 2897 466 2520 194 
Q 2144 -78 1638 -78 
Q 1100 -78 759 220 
Q 419 519 350 1059 
z
M 2653 3081 
Q 2653 3566 2395 3850 
Q 2138 4134 1775 4134 
Q 1400 4134 1122 3828 
Q 844 3522 844 3034 
Q 844 2597 1108 2323 
Q 1372 2050 1759 2050 
Q 2150 2050 2401 2323 
Q 2653 2597 2653 3081 
z
" transform="scale(0.015625)"/>
     </defs>
     <use xlink:href="#ArialMT-1c"/>
    </g>
   </g>
   <g id="text_10">
    <!-- 10 -->
    <g style="fill: #ffffff" transform="translate(100.28929 243.625302) scale(0.12 -0.12)">
     <defs>
      <path id="ArialMT-13" d="M 266 2259 
Q 266 3072 433 3567 
Q 600 4063 929 4331 
Q 1259 4600 1759 4600 
Q 2128 4600 2406 4451 
Q 2684 4303 2865 4023 
Q 3047 3744 3150 3342 
Q 3253 2941 3253 2259 
Q 3253 1453 3087 958 
Q 2922 463 2592 192 
Q 2263 -78 1759 -78 
Q 1097 -78 719 397 
Q 266 969 266 2259 
z
M 844 2259 
Q 844 1131 1108 757 
Q 1372 384 1759 384 
Q 2147 384 2411 759 
Q 2675 1134 2675 2259 
Q 2675 3391 2411 3762 
Q 2147 4134 1753 4134 
Q 1366 4134 1134 3806 
Q 844 3388 844 2259 
z
" transform="scale(0.015625)"/>
     </defs>
     <use xlink:href="#ArialMT-14"/>
     <use xlink:href="#ArialMT-13" transform="translate(55.609375 0)"/>
    </g>
   </g>
   <g id="text_11">
    <!-- 11 -->
    <g style="fill: #ffffff" transform="translate(74.511025 214.501069) scale(0.12 -0.12)">
     <use xlink:href="#ArialMT-14"/>
     <use xlink:href="#ArialMT-14" transform="translate(48.1875 0)"/>
    </g>
   </g>
   <g id="text_12">
    <!-- 12 -->
    <g style="fill: #ffffff" transform="translate(61.955176 177.228667) scale(0.12 -0.12)">
     <use xlink:href="#ArialMT-14"/>
     <use xlink:href="#ArialMT-15" transform="translate(55.609375 0)"/>
    </g>
   </g>
   <g id="text_13">
    <!-- 13 -->
    <g style="fill: #ffffff" transform="translate(66.0517 138.252835) scale(0.12 -0.12)">
     <use xlink:href="#ArialMT-14"/>
     <use xlink:href="#ArialMT-16" transform="translate(55.609375 0)"/>
    </g>
   </g>
   <g id="text_14">
    <!-- 14 -->
    <g style="fill: #ffffff" transform="translate(85.646962 104.312847) scale(0.12 -0.12)">
     <use xlink:href="#ArialMT-14"/>
     <use xlink:href="#ArialMT-17" transform="translate(55.609375 0)"/>
    </g>
   </g>
   <g id="text_15">
    <!-- 15 -->
    <g style="fill: #ffffff" transform="translate(117.35276 81.277236) scale(0.12 -0.12)">
     <use xlink:href="#ArialMT-14"/>
     <use xlink:href="#ArialMT-18" transform="translate(55.609375 0)"/>
    </g>
   </g>
   <g id="text_16">
    <!-- N=15, edges=15, mean_degree=2.00, hash=4f744e08e2f9 -->
    <g style="fill: #111827" transform="translate(-78.17 31.472) scale(0.16 -0.16)">
     <defs>
      <path id="DejaVuSans-31" d="M 628 4666 
L 1478 4666 
L 3547 763 
L 3547 4666 
L 4159 4666 
L 4159 0 
L 3309 0 
L 1241 3903 
L 1241 0 
L 628 0 
L 628 4666 
z
" transform="scale(0.015625)"/>
      <path id="DejaVuSans-20" d="M 678 2906 
L 4684 2906 
L 4684 2381 
L 678 2381 
L 678 2906 
z
M 678 1631 
L 4684 1631 
L 4684 1100 
L 678 1100 
L 678 1631 
z
" transform="scale(0.015625)"/>
      <path id="DejaVuSans-14" d="M 794 531 
L 1825 531 
L 1825 4091 
L 703 3866 
L 703 4441 
L 1819 4666 
L 2450 4666 
L 2450 531 
L 3481 531 
L 3481 0 
L 794 0 
L 794 531 
z
" transform="scale(0.015625)"/>
      <path id="DejaVuSans-18" d="M 691 4666 
L 3169 4666 
L 3169 4134 
L 1269 4134 
L 1269 2991 
Q 1406 3038 1543 3061 
Q 1681 3084 1819 3084 
Q 2600 3084 3056 2656 
Q 3513 2228 3513 1497 
Q 3513 744 3044 326 
Q 2575 -91 1722 -91 
Q 1428 -91 1123 -41 
Q 819 9 494 109 
L 494 744 
Q 775 591 1075 516 
Q 1375 441 1709 441 
Q 2250 441 2565 725 
Q 2881 1009 2881 1497 
Q 2881 1984 2565 2268 
Q 2250 2553 1709 2553 
Q 1456 2553 1204 2497 
Q 953 2441 691 2322 
L 691 4666 
z
" transform="scale(0.015625)"/>
      <path id="DejaVuSans-f" d="M 750 794 
L 1409 794 
L 1409 256 
L 897 -744 
L 494 -744 
L 750 256 
L 750 794 
z
" transform="scale(0.015625)"/>
      <path id="DejaVuSans-3" transform="scale(0.015625)"/>
      <path id="DejaVuSans-48" d="M 3597 1894 
L 3597 1613 
L 953 1613 
Q 991 1019 1311 708 
Q 1631 397 2203 397 
Q 2534 397 2845 478 
Q 3156 559 3463 722 
L 3463 178 
Q 3153 47 2828 -22 
Q 2503 -91 2169 -91 
Q 1331 -91 842 396 
Q 353 884 353 1716 
Q 353 2575 817 3079 
Q 1281 3584 2069 3584 
Q 2775 3584 3186 3129 
Q 3597 2675 3597 1894 
z
M 3022 2063 
Q 3016 2534 2758 2815 
Q 2500 3097 2075 3097 
Q 1594 3097 1305 2825 
Q 1016 2553 972 2059 
L 3022 2063 
z
" transform="scale(0.015625)"/>
      <path id="DejaVuSans-47" d="M 2906 2969 
L 2906 4863 
L 3481 4863 
L 3481 0 
L 2906 0 
L 2906 525 
Q 2725 213 2448 61 
Q 2172 -91 1784 -91 
Q 1150 -91 751 415 
Q 353 922 353 1747 
Q 353 2572 751 3078 
Q 1150 3584 1784 3584 
Q 2172 3584 2448 3432 
Q 2725 3281 2906 2969 
z
M 947 1747 
Q 947 1113 1208 752 
Q 1469 391 1925 391 
Q 2381 391 2643 752 
Q 2906 1113 2906 1747 
Q 2906 2381 2643 2742 
Q 2381 3103 1925 3103 
Q 1469 3103 1208 2742 
Q 947 2381 947 1747 
z
" transform="scale(0.015625)"/>
      <path id="DejaVuSans-4a" d="M 2906 1791 
Q 2906 2416 2648 2759 
Q 2391 3103 1925 3103 
Q 1463 3103 1205 2759 
Q 947 2416 947 1791 
Q 947 1169 1205 825 
Q 1463 481 1925 481 
Q 2391 481 2648 825 
Q 2906 1169 2906 1791 
z
M 3481 434 
Q 3481 -459 3084 -895 
Q 2688 -1331 1869 -1331 
Q 1566 -1331 1297 -1286 
Q 1028 -1241 775 -1147 
L 775 -588 
Q 1028 -725 1275 -790 
Q 1522 -856 1778 -856 
Q 2344 -856 2625 -561 
Q 2906 -266 2906 331 
L 2906 616 
Q 2728 306 2450 153 
Q 2172 0 1784 0 
Q 1141 0 747 490 
Q 353 981 353 1791 
Q 353 2603 747 3093 
Q 1141 3584 1784 3584 
Q 2172 3584 2450 3431 
Q 2728 3278 2906 2969 
L 2906 3500 
L 3481 3500 
L 3481 434 
z
" transform="scale(0.015625)"/>
      <path id="DejaVuSans-56" d="M 2834 3397 
L 2834 2853 
Q 2591 2978 2328 3040 
Q 2066 3103 1784 3103 
Q 1356 3103 1142 2972 
Q 928 2841 928 2578 
Q 928 2378 1081 2264 
Q 1234 2150 1697 2047 
L 1894 2003 
Q 2506 1872 2764 1633 
Q 3022 1394 3022 966 
Q 3022 478 2636 193 
Q 2250 -91 1575 -91 
Q 1294 -91 989 -36 
Q 684 19 347 128 
L 347 722 
Q 666 556 975 473 
Q 1284 391 1588 391 
Q 1994 391 2212 530 
Q 2431 669 2431 922 
Q 2431 1156 2273 1281 
Q 2116 1406 1581 1522 
L 1381 1569 
Q 847 1681 609 1914 
Q 372 2147 372 2553 
Q 372 3047 722 3315 
Q 1072 3584 1716 3584 
Q 2034 3584 2315 3537 
Q 2597 3491 2834 3397 
z
" transform="scale(0.015625)"/>
      <path id="DejaVuSans-50" d="M 3328 2828 
Q 3544 3216 3844 3400 
Q 4144 3584 4550 3584 
Q 5097 3584 5394 3201 
Q 5691 2819 5691 2113 
L 5691 0 
L 5113 0 
L 5113 2094 
Q 5113 2597 4934 2840 
Q 4756 3084 4391 3084 
Q 3944 3084 3684 2787 
Q 3425 2491 3425 1978 
L 3425 0 
L 2847 0 
L 2847 2094 
Q 2847 2600 2669 2842 
Q 2491 3084 2119 3084 
Q 1678 3084 1418 2786 
Q 1159 2488 1159 1978 
L 1159 0 
L 581 0 
L 581 3500 
L 1159 3500 
L 1159 2956 
Q 1356 3278 1631 3431 
Q 1906 3584 2284 3584 
Q 2666 3584 2933 3390 
Q 3200 3197 3328 2828 
z
" transform="scale(0.015625)"/>
      <path id="DejaVuSans-44" d="M 2194 1759 
Q 1497 1759 1228 1600 
Q 959 1441 959 1056 
Q 959 750 1161 570 
Q 1363 391 1709 391 
Q 2188 391 2477 730 
Q 2766 1069 2766 1631 
L 2766 1759 
L 2194 1759 
z
M 3341 1997 
L 3341 0 
L 2766 0 
L 2766 531 
Q 2569 213 2275 61 
Q 1981 -91 1556 -91 
Q 1019 -91 701 211 
Q 384 513 384 1019 
Q 384 1609 779 1909 
Q 1175 2209 1959 2209 
L 2766 2209 
L 2766 2266 
Q 2766 2663 2505 2880 
Q 2244 3097 1772 3097 
Q 1472 3097 1187 3025 
Q 903 2953 641 2809 
L 641 3341 
Q 956 3463 1253 3523 
Q 1550 3584 1831 3584 
Q 2591 3584 2966 3190 
Q 3341 2797 3341 1997 
z
" transform="scale(0.015625)"/>
      <path id="DejaVuSans-51" d="M 3513 2113 
L 3513 0 
L 2938 0 
L 2938 2094 
Q 2938 2591 2744 2837 
Q 2550 3084 2163 3084 
Q 1697 3084 1428 2787 
Q 1159 2491 1159 1978 
L 1159 0 
L 581 0 
L 581 3500 
L 1159 3500 
L 1159 2956 
Q 1366 3272 1645 3428 
Q 1925 3584 2291 3584 
Q 2894 3584 3203 3211 
Q 3513 2838 3513 2113 
z
" transform="scale(0.015625)"/>
      <path id="DejaVuSans-42" d="M 3263 -1063 
L 3263 -1509 
L -63 -1509 
L -63 -1063 
L 3263 -1063 
z
" transform="scale(0.015625)"/>
      <path id="DejaVuSans-55" d="M 2631 2963 
Q 2534 3019 2420 3045 
Q 2306 3072 2169 3072 
Q 1681 3072 1420 2755 
Q 1159 2438 1159 1844 
L 1159 0 
L 581 0 
L 581 3500 
L 1159 3500 
L 1159 2956 
Q 1341 3275 1631 3429 
Q 1922 3584 2338 3584 
Q 2397 3584 2469 3576 
Q 2541 3569 2628 3553 
L 2631 2963 
z
" transform="scale(0.015625)"/>
      <path id="DejaVuSans-15" d="M 1228 531 
L 3431 531 
L 3431 0 
L 469 0 
L 469 531 
Q 828 903 1448 1529 
Q 2069 2156 2228 2338 
Q 2531 2678 2651 2914 
Q 2772 3150 2772 3378 
Q 2772 3750 2511 3984 
Q 2250 4219 1831 4219 
Q 1534 4219 1204 4116 
Q 875 4013 500 3803 
L 500 4441 
Q 881 4594 1212 4672 
Q 1544 4750 1819 4750 
Q 2544 4750 2975 4387 
Q 3406 4025 3406 3419 
Q 3406 3131 3298 2873 
Q 3191 2616 2906 2266 
Q 2828 2175 2409 1742 
Q 1991 1309 1228 531 
z
" transform="scale(0.015625)"/>
      <path id="DejaVuSans-11" d="M 684 794 
L 1344 794 
L 1344 0 
L 684 0 
L 684 794 
z
" transform="scale(0.015625)"/>
      <path id="DejaVuSans-13" d="M 2034 4250 
Q 1547 4250 1301 3770 
Q 1056 3291 1056 2328 
Q 1056 1369 1301 889 
Q 1547 409 2034 409 
Q 2525 409 2770 889 
Q 3016 1369 3016 2328 
Q 3016 3291 2770 3770 
Q 2525 4250 2034 4250 
z
M 2034 4750 
Q 2819 4750 3233 4129 
Q 3647 3509 3647 2328 
Q 3647 1150 3233 529 
Q 2819 -91 2034 -91 
Q 1250 -91 836 529 
Q 422 1150 422 2328 
Q 422 3509 836 4129 
Q 1250 4750 2034 4750 
z
" transform="scale(0.015625)"/>
      <path id="DejaVuSans-4b" d="M 3513 2113 
L 3513 0 
L 2938 0 
L 2938 2094 
Q 2938 2591 2744 2837 
Q 2550 3084 2163 3084 
Q 1697 3084 1428 2787 
Q 1159 2491 1159 1978 
L 1159 0 
L 581 0 
L 581 4863 
L 1159 4863 
L 1159 2956 
Q 1366 3272 1645 3428 
Q 1925 3584 2291 3584 
Q 2894 3584 3203 3211 
Q 3513 2838 3513 2113 
z
" transform="scale(0.015625)"/>
      <path id="DejaVuSans-17" d="M 2419 4116 
L 825 1625 
L 2419 1625 
L 2419 4116 
z
M 2253 4666 
L 3047 4666 
L 3047 1625 
L 3713 1625 
L 3713 1100 
L 3047 1100 
L 3047 0 
L 2419 0 
L 2419 1100 
L 313 1100 
L 313 1709 
L 2253 4666 
z
" transform="scale(0.015625)"/>
      <path id="DejaVuSans-49" d="M 2375 4863 
L 2375 4384 
L 1825 4384 
Q 1516 4384 1395 4259 
Q 1275 4134 1275 3809 
L 1275 3500 
L 2222 3500 
L 2222 3053 
L 1275 3053 
L 1275 0 
L 697 0 
L 697 3053 
L 147 3053 
L 147 3500 
L 697 3500 
L 697 3744 
Q 697 4328 969 4595 
Q 1241 4863 1831 4863 
L 2375 4863 
z
" transform="scale(0.015625)"/>
      <path id="DejaVuSans-1a" d="M 525 4666 
L 3525 4666 
L 3525 4397 
L 1831 0 
L 1172 0 
L 2766 4134 
L 525 4134 
L 525 4666 
z
" transform="scale(0.015625)"/>
      <path id="DejaVuSans-1b" d="M 2034 2216 
Q 1584 2216 1326 1975 
Q 1069 1734 1069 1313 
Q 1069 891 1326 650 
Q 1584 409 2034 409 
Q 2484 409 2743 651 
Q 3003 894 3003 1313 
Q 3003 1734 2745 1975 
Q 2488 2216 2034 2216 
z
M 1403 2484 
Q 997 2584 770 2862 
Q 544 3141 544 3541 
Q 544 4100 942 4425 
Q 1341 4750 2034 4750 
Q 2731 4750 3128 4425 
Q 3525 4100 3525 3541 
Q 3525 3141 3298 2862 
Q 3072 2584 2669 2484 
Q 3125 2378 3379 2068 
Q 3634 1759 3634 1313 
Q 3634 634 3220 271 
Q 2806 -91 2034 -91 
Q 1263 -91 848 271 
Q 434 634 434 1313 
Q 434 1759 690 2068 
Q 947 2378 1403 2484 
z
M 1172 3481 
Q 1172 3119 1398 2916 
Q 1625 2713 2034 2713 
Q 2441 2713 2670 2916 
Q 2900 3119 2900 3481 
Q 2900 3844 2670 4047 
Q 2441 4250 2034 4250 
Q 1625 4250 1398 4047 
Q 1172 3844 1172 3481 
z
" transform="scale(0.015625)"/>
      <path id="DejaVuSans-1c" d="M 703 97 
L 703 672 
Q 941 559 1184 500 
Q 1428 441 1663 441 
Q 2288 441 2617 861 
Q 2947 1281 2994 2138 
Q 2813 1869 2534 1725 
Q 2256 1581 1919 1581 
Q 1219 1581 811 2004 
Q 403 2428 403 3163 
Q 403 3881 828 4315 
Q 1253 4750 1959 4750 
Q 2769 4750 3195 4129 
Q 3622 3509 3622 2328 
Q 3622 1225 3098 567 
Q 2575 -91 1691 -91 
Q 1453 -91 1209 -44 
Q 966 3 703 97 
z
M 1959 2075 
Q 2384 2075 2632 2365 
Q 2881 2656 2881 3163 
Q 2881 3666 2632 3958 
Q 2384 4250 1959 4250 
Q 1534 4250 1286 3958 
Q 1038 3666 1038 3163 
Q 1038 2656 1286 2365 
Q 1534 2075 1959 2075 
z
" transform="scale(0.015625)"/>
     </defs>
     <use xlink:href="#DejaVuSans-31"/>
     <use xlink:href="#DejaVuSans-20" transform="translate(74.8125 0)"/>
     <use xlink:href="#DejaVuSans-14" transform="translate(158.609375 0)"/>
     <use xlink:href="#DejaVuSans-18" transform="translate(222.234375 0)"/>
     <use xlink:href="#DejaVuSans-f" transform="translate(285.859375 0)"/>
     <use xlink:href="#DejaVuSans-3" transform="translate(317.640625 0)"/>
     <use xlink:href="#DejaVuSans-48" transform="translate(349.421875 0)"/>
     <use xlink:href="#DejaVuSans-47" transform="translate(410.953125 0)"/>
     <use xlink:href="#DejaVuSans-4a" transform="translate(474.4375 0)"/>
     <use xlink:href="#DejaVuSans-48" transform="translate(537.921875 0)"/>
     <use xlink:href="#DejaVuSans-56" transform="translate(599.453125 0)"/>
     <use xlink:href="#DejaVuSans-20" transform="translate(651.546875 0)"/>
     <use xlink:href="#DejaVuSans-14" transform="translate(735.34375 0)"/>
     <use xlink:href="#DejaVuSans-18" transform="translate(798.96875 0)"/>
     <use xlink:href="#DejaVuSans-f" transform="translate(862.59375 0)"/>
     <use xlink:href="#DejaVuSans-3" transform="translate(894.375 0)"/>
     <use xlink:href="#DejaVuSans-50" transform="translate(926.15625 0)"/>
     <use xlink:href="#DejaVuSans-48" transform="translate(1023.5625 0)"/>
     <use xlink:href="#DejaVuSans-44" transform="translate(1085.09375 0)"/>
     <use xlink:href="#DejaVuSans-51" transform="translate(1146.375 0)"/>
     <use xlink:href="#DejaVuSans-42" transform="translate(1209.75 0)"/>
     <use xlink:href="#DejaVuSans-47" transform="translate(1259.75 0)"/>
     <use xlink:href="#DejaVuSans-48" transform="translate(1323.234375 0)"/>
     <use xlink:href="#DejaVuSans-4a" transform="translate(1384.765625 0)"/>
     <use xlink:href="#DejaVuSans-55" transform="translate(1448.25 0)"/>
     <use xlink:href="#DejaVuSans-48" transform="translate(1487.15625 0)"/>
     <use xlink:href="#DejaVuSans-48" transform="translate(1548.6875 0)"/>
     <use xlink:href="#DejaVuSans-20" transform="translate(1610.21875 0)"/>
     <use xlink:href="#DejaVuSans-15" transform="translate(1694.015625 0)"/>
     <use xlink:href="#DejaVuSans-11" transform="translate(1757.640625 0)"/>
     <use xlink:href="#DejaVuSans-13" transform="translate(1789.421875 0)"/>
     <use xlink:href="#DejaVuSans-13" transform="translate(1853.046875 0)"/>
     <use xlink:href="#DejaVuSans-f" transform="translate(1916.671875 0)"/>
     <use xlink:href="#DejaVuSans-3" transform="translate(1948.453125 0)"/>
     <use xlink:href="#DejaVuSans-4b" transform="translate(1980.234375 0)"/>
     <use xlink:href="#DejaVuSans-44" transform="translate(2043.609375 0)"/>
     <use xlink:href="#DejaVuSans-56" transform="translate(2104.890625 0)"/>
     <use xlink:href="#DejaVuSans-4b" transform="translate(2156.984375 0)"/>
     <use xlink:href="#DejaVuSans-20" transform="translate(2220.359375 0)"/>
     <use xlink:href="#DejaVuSans-17" transform="translate(2304.15625 0)"/>
     <use xlink:href="#DejaVuSans-49" transform="translate(2367.78125 0)"/>
     <use xlink:href="#DejaVuSans-1a" transform="translate(2402.984375 0)"/>
     <use xlink:href="#DejaVuSans-17" transform="translate(2466.609375 0)"/>
     <use xlink:href="#DejaVuSans-17" transform="translate(2530.234375 0)"/>
     <use xlink:href="#DejaVuSans-48" transform="translate(2593.859375 0)"/>
     <use xlink:href="#DejaVuSans-13" transform="translate(2655.390625 0)"/>
     <use xlink:href="#DejaVuSans-1b" transform="translate(2719.015625 0)"/>
     <use xlink:href="#DejaVuSans-48" transform="translate(2782.640625 0)"/>
     <use xlink:href="#DejaVuSans-15" transform="translate(2844.171875 0)"/>
     <use xlink:href="#DejaVuSans-49" transform="translate(2907.796875 0)"/>
     <use xlink:href="#DejaVuSans-1c" transform="translate(2943 0)"/>
    </g>
   </g>
  </g>
 </g>
 <defs>
  <clipPath id="p181a0487d7">
   <rect x="40.392" y="41.472" width="243.936" height="266.112"/>
  </clipPath>
 </defs>
</svg>
