<svg xmlns="http://www.w3.org/2000/svg" width="800" height="400">
<rect width="100%" height="100%" fill="white"/>
<text x="40" y="24" font-size="18" font-family="sans-serif">Queue Evolution</text>
<polyline fill="none" stroke="#1f77b4" stroke-width="2" points="40.0,360.0 46.6,360.0 53.2,346.7 59.8,333.3 66.4,320.0 73.0,293.3 79.6,280.0 86.2,293.3 92.8,266.7 99.4,266.7 106.1,253.3 112.7,253.3 119.3,266.7 125.9,266.7 132.5,266.7 139.1,266.7 145.7,240.0 152.3,240.0 158.9,240.0 165.5,226.7 172.1,240.0 178.7,226.7 185.3,226.7 191.9,253.3 198.5,253.3 205.1,280.0 211.7,266.7 218.3,266.7 225.0,253.3 231.6,253.3 238.2,253.3 244.8,226.7 251.4,240.0 258.0,266.7 264.6,240.0 271.2,226.7 277.8,253.3 284.4,226.7 291.0,240.0 297.6,226.7 304.2,226.7 310.8,226.7 317.4,240.0 324.0,213.3 330.6,213.3 337.2,226.7 343.9,240.0 350.5,253.3 357.1,266.7 363.7,280.0 370.3,266.7 376.9,240.0 383.5,226.7 390.1,226.7 396.7,200.0 403.3,186.7 409.9,186.7 416.5,186.7 423.1,186.7 429.7,186.7 436.3,186.7 442.9,173.3 449.5,173.3 456.1,186.7 462.8,173.3 469.4,160.0 476.0,173.3 482.6,160.0 489.2,173.3 495.8,173.3 502.4,160.0 509.0,160.0 515.6,186.7 522.2,200.0 528.8,173.3 535.4,173.3 542.0,200.0 548.6,213.3 555.2,200.0 561.8,186.7 568.4,173.3 575.0,146.7 581.7,146.7 588.3,160.0 594.9,146.7 601.5,120.0 608.1,120.0 614.7,120.0 621.3,120.0 627.9,133.3 634.5,106.7 641.1,93.3 647.7,80.0 654.3,93.3 660.9,106.7 667.5,120.0 674.1,120.0 680.7,93.3 687.3,120.0 693.9,120.0 700.6,93.3 707.2,106.7 713.8,93.3 720.4,93.3 727.0,80.0 733.6,66.7 740.2,53.3 746.8,40.0 753.4,40.0 760.0,40.0"/>
</svg>