<svg xmlns="http://www.w3.org/2000/svg" width="800" height="400">
<rect width="100%" height="100%" fill="white"/>
<text x="40" y="24" font-size="18" font-family="sans-serif">Utilization</text>
<polyline fill="none" stroke="#1f77b4" stroke-width="2" points="40.0,360.0 46.6,360.0 53.2,320.6 59.8,300.9 66.4,265.5 73.0,241.9 79.6,225.0 86.2,212.3 92.8,202.5 99.4,194.6 106.1,188.2 112.7,182.8 119.3,178.3 125.9,174.4 132.5,171.0 139.1,168.1 145.7,165.4 152.3,163.1 158.9,161.1 165.5,153.3 172.1,146.3 178.7,139.9 185.3,134.0 191.9,128.7 198.5,123.8 205.1,119.2 211.7,119.4 218.3,115.3 225.0,111.5 231.6,108.0 238.2,108.5 244.8,109.0 251.4,105.9 258.0,102.9 264.6,103.5 271.2,100.8 277.8,98.2 284.4,95.8 291.0,93.5 297.6,91.3 304.2,89.2 310.8,87.2 317.4,85.3 324.0,83.5 330.6,81.8 337.2,80.1 343.9,78.5 350.5,77.0 357.1,75.5 363.7,76.5 370.3,77.4 376.9,78.3 383.5,77.0 390.1,75.6 396.7,74.4 403.3,73.1 409.9,72.0 416.5,70.8 423.1,69.7 429.7,68.6 436.3,67.6 442.9,66.6 449.5,65.6 456.1,64.7 462.8,63.8 469.4,62.9 476.0,62.1 482.6,61.2 489.2,60.4 495.8,59.6 502.4,58.9 509.0,58.1 515.6,57.4 522.2,56.7 528.8,56.0 535.4,55.4 542.0,54.7 548.6,54.1 555.2,53.5 561.8,52.9 568.4,52.3 575.0,51.7 581.7,51.2 588.3,50.6 594.9,50.1 601.5,49.6 608.1,49.1 614.7,48.6 621.3,48.1 627.9,47.6 634.5,47.2 641.1,46.7 647.7,46.3 654.3,45.8 660.9,45.4 667.5,45.0 674.1,44.6 680.7,44.2 687.3,43.8 693.9,43.4 700.6,43.1 707.2,42.7 713.8,42.3 720.4,42.0 727.0,41.6 733.6,41.3 740.2,41.0 746.8,40.6 753.4,40.3 760.0,40.0"/>
</svg>