<?xml version="1.0" encoding="utf-8" standalone="no"?>
<!DOCTYPE svg PUBLIC "-//W3C//DTD SVG 1.1//EN"
  "http://www.w3.org/Graphics/SVG/1.1/DTD/svg11.dtd">
<svg xmlns:xlink="http://www.w3.org/1999/xlink" width="316.8pt" height="345.6pt" viewBox="0 0 316.8 345.6" xmlns="http://www.w3.org/2000/svg" version="1.1">
 <metadata>
  <rdf:RDF xmlns:dc="http://purl.org/dc/elements/1.1/" xmlns:cc="http://creativecommons.org/ns#" xmlns:rdf="http://www.w3.org/1999/02/22-rdf-syntax-ns#">
   <cc:Work>
    <dc:type rdf:resource="http://purl.org/dc/dcmitype/StillImage"/>
    <dc:format>image/svg+xml</dc:format>
    <dc:creator>
     <cc:Agent>
      <dc:title>matplotlib-direct-dual-export</dc:title>
     </cc:Agent>
    </dc:creator>
   </cc:Work>
  </rdf:RDF>
 </metadata>
 <defs>
  <style type="text/css">*{stroke-linejoin: round; stroke-linecap: butt}</style>
 </defs>
 <g id="figure_1">
  <g id="patch_1">
   <path d="M 0 345.6 
L 316.8 345.6 
L 316.8 0 
L 0 0 
z
" style="fill: #ffffff"/>
  </g>
  <g id="axes_1">
   <g id="line2d_1">
    <path d="M 162.36 69.192 
L 251.995175 134.315766 
" clip-path="url(#pfa75cfa4c1)" style="fill: none; stroke: #4b5563; stroke-width: 2; stroke-linecap: square"/>
   </g>
   <g id="line2d_2">
    <path d="M 162.36 69.192 
L 217.757585 239.688234 
" clip-path="url(#pfa75cfa4c1)" style="fill: none; stroke: #4b5563; stroke-width: 2; stroke-linecap: square"/>
   </g>
   <g id="line2d_3">
    <path d="M 162.36 69.192 
L 106.962415 239.688234 
" clip-path="url(#pfa75cfa4c1)" style="fill: none; stroke: #4b5563; stroke-width: 2; stroke-linecap: square"/>
   </g>
   <g id="line2d_4">
    <path d="M 162.36 69.192 
L 72.724825 134.315766 
" clip-path="url(#pfa75cfa4c1)" style="fill: none; stroke: #4b5563; stroke-width: 2; stroke-linecap: square"/>
   </g>
   <g id="line2d_5">
    <path d="M 185.798525 72.152974 
L 256.422023 157.522119 
" clip-path="url(#pfa75cfa4c1)" style="fill: none; stroke: #4b5563; stroke-width: 2; stroke-linecap: square"/>
   </g>
   <g id="line2d_6">
    <path d="M 185.798525 72.152974 
L 197.055003 251.069574 
" clip-path="url(#pfa75cfa4c1)" style="fill: none; stroke: #4b5563; stroke-width: 2; stroke-linecap: square"/>
   </g>
   <g id="line2d_7">
    <path d="M 185.798525 72.152974 
L 89.740668 223.515936 
" clip-path="url(#pfa75cfa4c1)" style="fill: none; stroke: #4b5563; stroke-width: 2; stroke-linecap: square"/>
   </g>
   <g id="line2d_8">
    <path d="M 185.798525 72.152974 
L 82.783782 112.939396 
" clip-path="url(#pfa75cfa4c1)" style="fill: none; stroke: #4b5563; stroke-width: 2; stroke-linecap: square"/>
   </g>
   <g id="line2d_9">
    <path d="M 207.76432 80.849848 
L 254.938609 181.100314 
" clip-path="url(#pfa75cfa4c1)" style="fill: none; stroke: #4b5563; stroke-width: 2; stroke-linecap: square"/>
   </g>
   <g id="line2d_10">
    <path d="M 207.76432 80.849848 
L 174.172407 256.944826 
" clip-path="url(#pfa75cfa4c1)" style="fill: none; stroke: #4b5563; stroke-width: 2; stroke-linecap: square"/>
   </g>
   <g id="line2d_11">
    <path d="M 207.76432 80.849848 
L 77.08186 203.568847 
" clip-path="url(#pfa75cfa4c1)" style="fill: none; stroke: #4b5563; stroke-width: 2; stroke-linecap: square"/>
   </g>
   <g id="line2d_12">
    <path d="M 207.76432 80.849848 
L 97.842804 94.736165 
" clip-path="url(#pfa75cfa4c1)" style="fill: none; stroke: #4b5563; stroke-width: 2; stroke-linecap: square"/>
   </g>
   <g id="line2d_13">
    <path d="M 226.877196 94.736165 
L 247.63814 203.568847 
" clip-path="url(#pfa75cfa4c1)" style="fill: none; stroke: #4b5563; stroke-width: 2; stroke-linecap: square"/>
   </g>
   <g id="line2d_14">
    <path d="M 226.877196 94.736165 
L 150.547593 256.944826 
" clip-path="url(#pfa75cfa4c1)" style="fill: none; stroke: #4b5563; stroke-width: 2; stroke-linecap: square"/>
   </g>
   <g id="line2d_15">
    <path d="M 226.877196 94.736165 
L 69.781391 181.100314 
" clip-path="url(#pfa75cfa4c1)" style="fill: none; stroke: #4b5563; stroke-width: 2; stroke-linecap: square"/>
   </g>
   <g id="line2d_16">
    <path d="M 226.877196 94.736165 
L 116.95568 80.849848 
" clip-path="url(#pfa75cfa4c1)" style="fill: none; stroke: #4b5563; stroke-width: 2; stroke-linecap: square"/>
   </g>
   <g id="line2d_17">
    <path d="M 241.936218 112.939396 
L 234.979332 223.515936 
" clip-path="url(#pfa75cfa4c1)" style="fill: none; stroke: #4b5563; stroke-width: 2; stroke-linecap: square"/>
   </g>
   <g id="line2d_18">
    <path d="M 241.936218 112.939396 
L 127.664997 251.069574 
" clip-path="url(#pfa75cfa4c1)" style="fill: none; stroke: #4b5563; stroke-width: 2; stroke-linecap: square"/>
   </g>
   <g id="line2d_19">
    <path d="M 241.936218 112.939396 
L 68.297977 157.522119 
" clip-path="url(#pfa75cfa4c1)" style="fill: none; stroke: #4b5563; stroke-width: 2; stroke-linecap: square"/>
   </g>
   <g id="line2d_20">
    <path d="M 241.936218 112.939396 
L 138.921475 72.152974 
" clip-path="url(#pfa75cfa4c1)" style="fill: none; stroke: #4b5563; stroke-width: 2; stroke-linecap: square"/>
   </g>
   <g id="line2d_21">
    <path d="M 251.995175 134.315766 
L 217.757585 239.688234 
" clip-path="url(#pfa75cfa4c1)" style="fill: none; stroke: #4b5563; stroke-width: 2; stroke-linecap: square"/>
   </g>
   <g id="line2d_22">
    <path d="M 251.995175 134.315766 
L 106.962415 239.688234 
" clip-path="url(#pfa75cfa4c1)" style="fill: none; stroke: #4b5563; stroke-width: 2; stroke-linecap: square"/>
   </g>
   <g id="line2d_23">
    <path d="M 251.995175 134.315766 
L 72.724825 134.315766 
" clip-path="url(#pfa75cfa4c1)" style="fill: none; stroke: #4b5563; stroke-width: 2; stroke-linecap: square"/>
   </g>
   <g id="line2d_24">
    <path d="M 256.422023 157.522119 
L 197.055003 251.069574 
" clip-path="url(#pfa75cfa4c1)" style="fill: none; stroke: #4b5563; stroke-width: 2; stroke-linecap: square"/>
   </g>
   <g id="line2d_25">
    <path d="M 256.422023 157.522119 
L 89.740668 223.515936 
" clip-path="url(#pfa75cfa4c1)" style="fill: none; stroke: #4b5563; stroke-width: 2; stroke-linecap: square"/>
   </g>
   <g id="line2d_26">
    <path d="M 256.422023 157.522119 
L 82.783782 112.939396 
" clip-path="url(#pfa75cfa4c1)" style="fill: none; stroke: #4b5563; stroke-width: 2; stroke-linecap: square"/>
   </g>
   <g id="line2d_27">
    <path d="M 254.938609 181.100314 
L 174.172407 256.944826 
" clip-path="url(#pfa75cfa4c1)" style="fill: none; stroke: #4b5563; stroke-width: 2; stroke-linecap: square"/>
   </g>
   <g id="line2d_28">
    <path d="M 254.938609 181.100314 
L 77.08186 203.568847 
" clip-path="url(#pfa75cfa4c1)" style="fill: none; stroke: #4b5563; stroke-width: 2; stroke-linecap: square"/>
   </g>
   <g id="line2d_29">
    <path d="M 254.938609 181.100314 
L 97.842804 94.736165 
" clip-path="url(#pfa75cfa4c1)" style="fill: none; stroke: #4b5563; stroke-width: 2; stroke-linecap: square"/>
   </g>
   <g id="line2d_30">
    <path d="M 247.63814 203.568847 
L 150.547593 256.944826 
" clip-path="url(#pfa75cfa4c1)" style="fill: none; stroke: #4b5563; stroke-width: 2; stroke-linecap: square"/>
   </g>
   <g id="line2d_31">
    <path d="M 247.63814 203.568847 
L 69.781391 181.100314 
" clip-path="url(#pfa75cfa4c1)" style="fill: none; stroke: #4b5563; stroke-width: 2; stroke-linecap: square"/>
   </g>
   <g id="line2d_32">
    <path d="M 247.63814 203.568847 
L 116.95568 80.849848 
" clip-path="url(#pfa75cfa4c1)" style="fill: none; stroke: #4b5563; stroke-width: 2; stroke-linecap: square"/>
   </g>
   <g id="line2d_33">
    <path d="M 234.979332 223.515936 
L 127.664997 251.069574 
" clip-path="url(#pfa75cfa4c1)" style="fill: none; stroke: #4b5563; stroke-width: 2; stroke-linecap: square"/>
   </g>
   <g id="line2d_34">
    <path d="M 234.979332 223.515936 
L 68.297977 157.522119 
" clip-path="url(#pfa75cfa4c1)" style="fill: none; stroke: #4b5563; stroke-width: 2; stroke-linecap: square"/>
   </g>
   <g id="line2d_35">
    <path d="M 234.979332 223.515936 
L 138.921475 72.152974 
" clip-path="url(#pfa75cfa4c1)" style="fill: none; stroke: #4b5563; stroke-width: 2; stroke-linecap: square"/>
   </g>
   <g id="line2d_36">
    <path d="M 217.757585 239.688234 
L 106.962415 239.688234 
" clip-path="url(#pfa75cfa4c1)" style="fill: none; stroke: #4b5563; stroke-width: 2; stroke-linecap: square"/>
   </g>
   <g id="line2d_37">
    <path d="M 217.757585 239.688234 
L 72.724825 134.315766 
" clip-path="url(#pfa75cfa4c1)" style="fill: none; stroke: #4b5563; stroke-width: 2; stroke-linecap: square"/>
   </g>
   <g id="line2d_38">
    <path d="M 197.055003 251.069574 
L 89.740668 223.515936 
" clip-path="url(#pfa75cfa4c1)" style="fill: none; stroke: #4b5563; stroke-width: 2; stroke-linecap: square"/>
   </g>
   <g id="line2d_39">
    <path d="M 197.055003 251.069574 
L 82.783782 112.939396 
" clip-path="url(#pfa75cfa4c1)" style="fill: none; stroke: #4b5563; stroke-width: 2; stroke-linecap: square"/>
   </g>
   <g id="line2d_40">
    <path d="M 174.172407 256.944826 
L 77.08186 203.568847 
" clip-path="url(#pfa75cfa4c1)" style="fill: none; stroke: #4b5563; stroke-width: 2; stroke-linecap: square"/>
   </g>
   <g id="line2d_41">
    <path d="M 174.172407 256.944826 
L 97.842804 94.736165 
" clip-path="url(#pfa75cfa4c1)" style="fill: none; stroke: #4b5563; stroke-width: 2; stroke-linecap: square"/>
   </g>
   <g id="line2d_42">
    <path d="M 150.547593 256.944826 
L 69.781391 181.100314 
" clip-path="url(#pfa75cfa4c1)" style="fill: none; stroke: #4b5563; stroke-width: 2; stroke-linecap: square"/>
   </g>
   <g id="line2d_43">
    <path d="M 150.547593 256.944826 
L 116.95568 80.849848 
" clip-path="url(#pfa75cfa4c1)" style="fill: none; stroke: #4b5563; stroke-width: 2; stroke-linecap: square"/>
   </g>
   <g id="line2d_44">
    <path d="M 127.664997 251.069574 
L 68.297977 157.522119 
" clip-path="url(#pfa75cfa4c1)" style="fill: none; stroke: #4b5563; stroke-width: 2; stroke-linecap: square"/>
   </g>
   <g id="line2d_45">
    <path d="M 127.664997 251.069574 
L 138.921475 72.152974 
" clip-path="url(#pfa75cfa4c1)" style="fill: none; stroke: #4b5563; stroke-width: 2; stroke-linecap: square"/>
   </g>
   <g id="line2d_46">
    <path d="M 106.962415 239.688234 
L 72.724825 134.315766 
" clip-path="url(#pfa75cfa4c1)" style="fill: none; stroke: #4b5563; stroke-width: 2; stroke-linecap: square"/>
   </g>
   <g id="line2d_47">
    <path d="M 89.740668 223.515936 
L 82.783782 112.939396 
" clip-path="url(#pfa75cfa4c1)" style="fill: none; stroke: #4b5563; stroke-width: 2; stroke-linecap: square"/>
   </g>
   <g id="line2d_48">
    <path d="M 77.08186 203.568847 
L 97.842804 94.736165 
" clip-path="url(#pfa75cfa4c1)" style="fill: none; stroke: #4b5563; stroke-width: 2; stroke-linecap: square"/>
   </g>
   <g id="line2d_49">
    <path d="M 69.781391 181.100314 
L 116.95568 80.849848 
" clip-path="url(#pfa75cfa4c1)" style="fill: none; stroke: #4b5563; stroke-width: 2; stroke-linecap: square"/>
   </g>
   <g id="line2d_50">
    <path d="M 68.297977 157.522119 
L 138.921475 72.152974 
" clip-path="url(#pfa75cfa4c1)" style="fill: none; stroke: #4b5563; stroke-width: 2; stroke-linecap: square"/>
   </g>
   <g id="patch_2">
    <path d="M 162.36 60.876 
C 164.565429 60.876 166.680826 61.752226 168.2403 63.3117 
C 169.799774 64.871174 170.676 66.986571 170.676 69.192 
C 170.676 71.397429 169.799774 73.512826 168.2403 75.0723 
C 166.680826 76.631774 164.565429 77.508 162.36 77.508 
C 160.154571 77.508 158.039174 76.631774 156.4797 75.0723 
C 154.920226 73.512826 154.044 71.397429 154.044 69.192 
C 154.044 66.986571 154.920226 64.871174 156.4797 63.3117 
C 158.039174 61.752226 160.154571 60.876 162.36 60.876 
z
" clip-path="url(#pfa75cfa4c1)" style="fill: #2563eb; stroke: #2563eb; stroke-linejoin: miter"/>
   </g>
   <g id="patch_3">
    <path d="M 185.798525 63.836974 
C 188.003954 63.836974 190.119351 64.713201 191.678825 66.272674 
C 193.238298 67.832148 194.114525 69.947545 194.114525 72.152974 
C 194.114525 74.358403 193.238298 76.473801 191.678825 78.033274 
C 190.119351 79.592748 188.003954 80.468974 185.798525 80.468974 
C 183.593096 80.468974 181.477698 79.592748 179.918225 78.033274 
C 178.358751 76.473801 177.482525 74.358403 177.482525 72.152974 
C 177.482525 69.947545 178.358751 67.832148 179.918225 66.272674 
C 181.477698 64.713201 183.593096 63.836974 185.798525 63.836974 
z
" clip-path="url(#pfa75cfa4c1)" style="fill: #2563eb; stroke: #2563eb; stroke-linejoin: miter"/>
   </g>
   <g id="patch_4">
    <path d="M 207.76432 72.533848 
C 209.969749 72.533848 212.085147 73.410074 213.64462 74.969548 
C 215.204094 76.529022 216.08032 78.644419 216.08032 80.849848 
C 216.08032 83.055277 215.204094 85.170674 213.64462 86.730148 
C 212.085147 88.289622 209.969749 89.165848 207.76432 89.165848 
C 205.558892 89.165848 203.443494 88.289622 201.884021 86.730148 
C 200.324547 85.170674 199.44832 83.055277 199.44832 80.849848 
C 199.44832 78.644419 200.324547 76.529022 201.884021 74.969548 
C 203.443494 73.410074 205.558892 72.533848 207.76432 72.533848 
z
" clip-path="url(#pfa75cfa4c1)" style="fill: #2563eb; stroke: #2563eb; stroke-linejoin: miter"/>
   </g>
   <g id="patch_5">
    <path d="M 226.877196 86.420165 
C 229.082625 86.420165 231.198022 87.296391 232.757496 88.855865 
C 234.316969 90.415338 235.193196 92.530736 235.193196 94.736165 
C 235.193196 96.941594 234.316969 99.056991 232.757496 100.616465 
C 231.198022 102.175938 229.082625 103.052165 226.877196 103.052165 
C 224.671767 103.052165 222.556369 102.175938 220.996896 100.616465 
C 219.437422 99.056991 218.561196 96.941594 218.561196 94.736165 
C 218.561196 92.530736 219.437422 90.415338 220.996896 88.855865 
C 222.556369 87.296391 224.671767 86.420165 226.877196 86.420165 
z
" clip-path="url(#pfa75cfa4c1)" style="fill: #2563eb; stroke: #2563eb; stroke-linejoin: miter"/>
   </g>
   <g id="patch_6">
    <path d="M 241.936218 104.623396 
C 244.141647 104.623396 246.257044 105.499623 247.816518 107.059096 
C 249.375992 108.61857 250.252218 110.733967 250.252218 112.939396 
C 250.252218 115.144825 249.375992 117.260223 247.816518 118.819696 
C 246.257044 120.37917 244.141647 121.255396 241.936218 121.255396 
C 239.730789 121.255396 237.615392 120.37917 236.055918 118.819696 
C 234.496444 117.260223 233.620218 115.144825 233.620218 112.939396 
C 233.620218 110.733967 234.496444 108.61857 236.055918 107.059096 
C 237.615392 105.499623 239.730789 104.623396 241.936218 104.623396 
z
" clip-path="url(#pfa75cfa4c1)" style="fill: #2563eb; stroke: #2563eb; stroke-linejoin: miter"/>
   </g>
   <g id="patch_7">
    <path d="M 251.995175 125.999766 
C 254.200604 125.999766 256.316001 126.875993 257.875475 128.435466 
C 259.434948 129.99494 260.311175 132.110337 260.311175 134.315766 
C 260.311175 136.521195 259.434948 138.636593 257.875475 140.196066 
C 256.316001 141.75554 254.200604 142.631766 251.995175 142.631766 
C 249.789746 142.631766 247.674348 141.75554 246.114875 140.196066 
C 244.555401 138.636593 243.679175 136.521195 243.679175 134.315766 
C 243.679175 132.110337 244.555401 129.99494 246.114875 128.435466 
C 247.674348 126.875993 249.789746 125.999766 251.995175 125.999766 
z
" clip-path="url(#pfa75cfa4c1)" style="fill: #2563eb; stroke: #2563eb; stroke-linejoin: miter"/>
   </g>
   <g id="patch_8">
    <path d="M 256.422023 149.206119 
C 258.627452 149.206119 260.742849 150.082346 262.302323 151.641819 
C 263.861797 153.201293 264.738023 155.31669 264.738023 157.522119 
C 264.738023 159.727548 263.861797 161.842945 262.302323 163.402419 
C 260.742849 164.961893 258.627452 165.838119 256.422023 165.838119 
C 254.216594 165.838119 252.101197 164.961893 250.541723 163.402419 
C 248.982249 161.842945 248.106023 159.727548 248.106023 157.522119 
C 248.106023 155.31669 248.982249 153.201293 250.541723 151.641819 
C 252.101197 150.082346 254.216594 149.206119 256.422023 149.206119 
z
" clip-path="url(#pfa75cfa4c1)" style="fill: #2563eb; stroke: #2563eb; stroke-linejoin: miter"/>
   </g>
   <g id="patch_9">
    <path d="M 254.938609 172.784314 
C 257.144038 172.784314 259.259435 173.66054 260.818909 175.220014 
C 262.378383 176.779488 263.254609 178.894885 263.254609 181.100314 
C 263.254609 183.305743 262.378383 185.42114 260.818909 186.980614 
C 259.259435 188.540088 257.144038 189.416314 254.938609 189.416314 
C 252.73318 189.416314 250.617783 188.540088 249.058309 186.980614 
C 247.498835 185.42114 246.622609 183.305743 246.622609 181.100314 
C 246.622609 178.894885 247.498835 176.779488 249.058309 175.220014 
C 250.617783 173.66054 252.73318 172.784314 254.938609 172.784314 
z
" clip-path="url(#pfa75cfa4c1)" style="fill: #2563eb; stroke: #2563eb; stroke-linejoin: miter"/>
   </g>
   <g id="patch_10">
    <path d="M 247.63814 195.252847 
C 249.843569 195.252847 251.958966 196.129073 253.51844 197.688547 
C 255.077914 199.248021 255.95414 201.363418 255.95414 203.568847 
C 255.95414 205.774276 255.077914 207.889673 253.51844 209.449147 
C 251.958966 211.008621 249.843569 211.884847 247.63814 211.884847 
C 245.432711 211.884847 243.317314 211.008621 241.75784 209.449147 
C 240.198366 207.889673 239.32214 205.774276 239.32214 203.568847 
C 239.32214 201.363418 240.198366 199.248021 241.75784 197.688547 
C 243.317314 196.129073 245.432711 195.252847 247.63814 195.252847 
z
" clip-path="url(#pfa75cfa4c1)" style="fill: #2563eb; stroke: #2563eb; stroke-linejoin: miter"/>
   </g>
   <g id="patch_11">
    <path d="M 234.979332 215.199936 
C 237.184761 215.199936 239.300158 216.076162 240.859632 217.635636 
C 242.419106 219.19511 243.295332 221.310507 243.295332 223.515936 
C 243.295332 225.721365 242.419106 227.836762 240.859632 229.396236 
C 239.300158 230.95571 237.184761 231.831936 234.979332 231.831936 
C 232.773903 231.831936 230.658506 230.95571 229.099032 229.396236 
C 227.539558 227.836762 226.663332 225.721365 226.663332 223.515936 
C 226.663332 221.310507 227.539558 219.19511 229.099032 217.635636 
C 230.658506 216.076162 232.773903 215.199936 234.979332 215.199936 
z
" clip-path="url(#pfa75cfa4c1)" style="fill: #2563eb; stroke: #2563eb; stroke-linejoin: miter"/>
   </g>
   <g id="patch_12">
    <path d="M 217.757585 231.372234 
C 219.963013 231.372234 222.078411 232.24846 223.637885 233.807934 
C 225.197358 235.367407 226.073585 237.482805 226.073585 239.688234 
C 226.073585 241.893663 225.197358 244.00906 223.637885 245.568534 
C 222.078411 247.128007 219.963013 248.004234 217.757585 248.004234 
C 215.552156 248.004234 213.436758 247.128007 211.877285 245.568534 
C 210.317811 244.00906 209.441585 241.893663 209.441585 239.688234 
C 209.441585 237.482805 210.317811 235.367407 211.877285 233.807934 
C 213.436758 232.24846 215.552156 231.372234 217.757585 231.372234 
z
" clip-path="url(#pfa75cfa4c1)" style="fill: #2563eb; stroke: #2563eb; stroke-linejoin: miter"/>
   </g>
   <g id="patch_13">
    <path d="M 197.055003 242.753574 
C 199.260432 242.753574 201.375829 243.629801 202.935303 245.189274 
C 204.494777 246.748748 205.371003 248.864145 205.371003 251.069574 
C 205.371003 253.275003 204.494777 255.390401 202.935303 256.949874 
C 201.375829 258.509348 199.260432 259.385574 197.055003 259.385574 
C 194.849574 259.385574 192.734177 258.509348 191.174703 256.949874 
C 189.615229 255.390401 188.739003 253.275003 188.739003 251.069574 
C 188.739003 248.864145 189.615229 246.748748 191.174703 245.189274 
C 192.734177 243.629801 194.849574 242.753574 197.055003 242.753574 
z
" clip-path="url(#pfa75cfa4c1)" style="fill: #2563eb; stroke: #2563eb; stroke-linejoin: miter"/>
   </g>
   <g id="patch_14">
    <path d="M 174.172407 248.628826 
C 176.377836 248.628826 178.493233 249.505052 180.052707 251.064526 
C 181.612181 252.624 182.488407 254.739397 182.488407 256.944826 
C 182.488407 259.150255 181.612181 261.265652 180.052707 262.825126 
C 178.493233 264.3846 176.377836 265.260826 174.172407 265.260826 
C 171.966978 265.260826 169.851581 264.3846 168.292107 262.825126 
C 166.732633 261.265652 165.856407 259.150255 165.856407 256.944826 
C 165.856407 254.739397 166.732633 252.624 168.292107 251.064526 
C 169.851581 249.505052 171.966978 248.628826 174.172407 248.628826 
z
" clip-path="url(#pfa75cfa4c1)" style="fill: #2563eb; stroke: #2563eb; stroke-linejoin: miter"/>
   </g>
   <g id="patch_15">
    <path d="M 150.547593 248.628826 
C 152.753022 248.628826 154.868419 249.505052 156.427893 251.064526 
C 157.987367 252.624 158.863593 254.739397 158.863593 256.944826 
C 158.863593 259.150255 157.987367 261.265652 156.427893 262.825126 
C 154.868419 264.3846 152.753022 265.260826 150.547593 265.260826 
C 148.342164 265.260826 146.226767 264.3846 144.667293 262.825126 
C 143.107819 261.265652 142.231593 259.150255 142.231593 256.944826 
C 142.231593 254.739397 143.107819 252.624 144.667293 251.064526 
C 146.226767 249.505052 148.342164 248.628826 150.547593 248.628826 
z
" clip-path="url(#pfa75cfa4c1)" style="fill: #2563eb; stroke: #2563eb; stroke-linejoin: miter"/>
   </g>
   <g id="patch_16">
    <path d="M 127.664997 242.753574 
C 129.870426 242.753574 131.985823 243.629801 133.545297 245.189274 
C 135.104771 246.748748 135.980997 248.864145 135.980997 251.069574 
C 135.980997 253.275003 135.104771 255.390401 133.545297 256.949874 
C 131.985823 258.509348 129.870426 259.385574 127.664997 259.385574 
C 125.459568 259.385574 123.344171 258.509348 121.784697 256.949874 
C 120.225223 255.390401 119.348997 253.275003 119.348997 251.069574 
C 119.348997 248.864145 120.225223 246.748748 121.784697 245.189274 
C 123.344171 243.629801 125.459568 242.753574 127.664997 242.753574 
z
" clip-path="url(#pfa75cfa4c1)" style="fill: #2563eb; stroke: #2563eb; stroke-linejoin: miter"/>
   </g>
   <g id="patch_17">
    <path d="M 106.962415 231.372234 
C 109.167844 231.372234 111.283242 232.24846 112.842715 233.807934 
C 114.402189 235.367407 115.278415 237.482805 115.278415 239.688234 
C 115.278415 241.893663 114.402189 244.00906 112.842715 245.568534 
C 111.283242 247.128007 109.167844 248.004234 106.962415 248.004234 
C 104.756987 248.004234 102.641589 247.128007 101.082115 245.568534 
C 99.522642 244.00906 98.646415 241.893663 98.646415 239.688234 
C 98.646415 237.482805 99.522642 235.367407 101.082115 233.807934 
C 102.641589 232.24846 104.756987 231.372234 106.962415 231.372234 
z
" clip-path="url(#pfa75cfa4c1)" style="fill: #2563eb; stroke: #2563eb; stroke-linejoin: miter"/>
   </g>
   <g id="patch_18">
    <path d="M 89.740668 215.199936 
C 91.946097 215.199936 94.061494 216.076162 95.620968 217.635636 
C 97.180442 219.19511 98.056668 221.310507 98.056668 223.515936 
C 98.056668 225.721365 97.180442 227.836762 95.620968 229.396236 
C 94.061494 230.95571 91.946097 231.831936 89.740668 231.831936 
C 87.535239 231.831936 85.419842 230.95571 83.860368 229.396236 
C 82.300894 227.836762 81.424668 225.721365 81.424668 223.515936 
C 81.424668 221.310507 82.300894 219.19511 83.860368 217.635636 
C 85.419842 216.076162 87.535239 215.199936 89.740668 215.199936 
z
" clip-path="url(#pfa75cfa4c1)" style="fill: #2563eb; stroke: #2563eb; stroke-linejoin: miter"/>
   </g>
   <g id="patch_19">
    <path d="M 77.08186 195.252847 
C 79.287289 195.252847 81.402686 196.129073 82.96216 197.688547 
C 84.521634 199.248021 85.39786 201.363418 85.39786 203.568847 
C 85.39786 205.774276 84.521634 207.889673 82.96216 209.449147 
C 81.402686 211.008621 79.287289 211.884847 77.08186 211.884847 
C 74.876431 211.884847 72.761034 211.008621 71.20156 209.449147 
C 69.642086 207.889673 68.76586 205.774276 68.76586 203.568847 
C 68.76586 201.363418 69.642086 199.248021 71.20156 197.688547 
C 72.761034 196.129073 74.876431 195.252847 77.08186 195.252847 
z
" clip-path="url(#pfa75cfa4c1)" style="fill: #2563eb; stroke: #2563eb; stroke-linejoin: miter"/>
   </g>
   <g id="patch_20">
    <path d="M 69.781391 172.784314 
C 71.98682 172.784314 74.102217 173.66054 75.661691 175.220014 
C 77.221165 176.779488 78.097391 178.894885 78.097391 181.100314 
C 78.097391 183.305743 77.221165 185.42114 75.661691 186.980614 
C 74.102217 188.540088 71.98682 189.416314 69.781391 189.416314 
C 67.575962 189.416314 65.460565 188.540088 63.901091 186.980614 
C 62.341617 185.42114 61.465391 183.305743 61.465391 181.100314 
C 61.465391 178.894885 62.341617 176.779488 63.901091 175.220014 
C 65.460565 173.66054 67.575962 172.784314 69.781391 172.784314 
z
" clip-path="url(#pfa75cfa4c1)" style="fill: #2563eb; stroke: #2563eb; stroke-linejoin: miter"/>
   </g>
   <g id="patch_21">
    <path d="M 68.297977 149.206119 
C 70.503406 149.206119 72.618803 150.082346 74.178277 151.641819 
C 75.737751 153.201293 76.613977 155.31669 76.613977 157.522119 
C 76.613977 159.727548 75.737751 161.842945 74.178277 163.402419 
C 72.618803 164.961893 70.503406 165.838119 68.297977 165.838119 
C 66.092548 165.838119 63.977151 164.961893 62.417677 163.402419 
C 60.858203 161.842945 59.981977 159.727548 59.981977 157.522119 
C 59.981977 155.31669 60.858203 153.201293 62.417677 151.641819 
C 63.977151 150.082346 66.092548 149.206119 68.297977 149.206119 
z
" clip-path="url(#pfa75cfa4c1)" style="fill: #2563eb; stroke: #2563eb; stroke-linejoin: miter"/>
   </g>
   <g id="patch_22">
    <path d="M 72.724825 125.999766 
C 74.930254 125.999766 77.045652 126.875993 78.605125 128.435466 
C 80.164599 129.99494 81.040825 132.110337 81.040825 134.315766 
C 81.040825 136.521195 80.164599 138.636593 78.605125 140.196066 
C 77.045652 141.75554 74.930254 142.631766 72.724825 142.631766 
C 70.519396 142.631766 68.403999 141.75554 66.844525 140.196066 
C 65.285052 138.636593 64.408825 136.521195 64.408825 134.315766 
C 64.408825 132.110337 65.285052 129.99494 66.844525 128.435466 
C 68.403999 126.875993 70.519396 125.999766 72.724825 125.999766 
z
" clip-path="url(#pfa75cfa4c1)" style="fill: #2563eb; stroke: #2563eb; stroke-linejoin: miter"/>
   </g>
   <g id="patch_23">
    <path d="M 82.783782 104.623396 
C 84.989211 104.623396 87.104608 105.499623 88.664082 107.059096 
C 90.223556 108.61857 91.099782 110.733967 91.099782 112.939396 
C 91.099782 115.144825 90.223556 117.260223 88.664082 118.819696 
C 87.104608 120.37917 84.989211 121.255396 82.783782 121.255396 
C 80.578353 121.255396 78.462956 120.37917 76.903482 118.819696 
C 75.344008 117.260223 74.467782 115.144825 74.467782 112.939396 
C 74.467782 110.733967 75.344008 108.61857 76.903482 107.059096 
C 78.462956 105.499623 80.578353 104.623396 82.783782 104.623396 
z
" clip-path="url(#pfa75cfa4c1)" style="fill: #2563eb; stroke: #2563eb; stroke-linejoin: miter"/>
   </g>
   <g id="patch_24">
    <path d="M 97.842804 86.420165 
C 100.048233 86.420165 102.163631 87.296391 103.723104 88.855865 
C 105.282578 90.415338 106.158804 92.530736 106.158804 94.736165 
C 106.158804 96.941594 105.282578 99.056991 103.723104 100.616465 
C 102.163631 102.175938 100.048233 103.052165 97.842804 103.052165 
C 95.637375 103.052165 93.521978 102.175938 91.962504 100.616465 
C 90.403031 99.056991 89.526804 96.941594 89.526804 94.736165 
C 89.526804 92.530736 90.403031 90.415338 91.962504 88.855865 
C 93.521978 87.296391 95.637375 86.420165 97.842804 86.420165 
z
" clip-path="url(#pfa75cfa4c1)" style="fill: #2563eb; stroke: #2563eb; stroke-linejoin: miter"/>
   </g>
   <g id="patch_25">
    <path d="M 116.95568 72.533848 
C 119.161108 72.533848 121.276506 73.410074 122.835979 74.969548 
C 124.395453 76.529022 125.27168 78.644419 125.27168 80.849848 
C 125.27168 83.055277 124.395453 85.170674 122.835979 86.730148 
C 121.276506 88.289622 119.161108 89.165848 116.95568 89.165848 
C 114.750251 89.165848 112.634853 88.289622 111.07538 86.730148 
C 109.515906 85.170674 108.639679 83.055277 108.639679 80.849848 
C 108.639679 78.644419 109.515906 76.529022 111.07538 74.969548 
C 112.634853 73.410074 114.750251 72.533848 116.95568 72.533848 
z
" clip-path="url(#pfa75cfa4c1)" style="fill: #2563eb; stroke: #2563eb; stroke-linejoin: miter"/>
   </g>
   <g id="patch_26">
    <path d="M 138.921475 63.836974 
C 141.126904 63.836974 143.242302 64.713201 144.801775 66.272674 
C 146.361249 67.832148 147.237475 69.947545 147.237475 72.152974 
C 147.237475 74.358403 146.361249 76.473801 144.801775 78.033274 
C 143.242302 79.592748 141.126904 80.468974 138.921475 80.468974 
C 136.716046 80.468974 134.600649 79.592748 133.041175 78.033274 
C 131.481702 76.473801 130.605475 74.358403 130.605475 72.152974 
C 130.605475 69.947545 131.481702 67.832148 133.041175 66.272674 
C 134.600649 64.713201 136.716046 63.836974 138.921475 63.836974 
z
" clip-path="url(#pfa75cfa4c1)" style="fill: #2563eb; stroke: #2563eb; stroke-linejoin: miter"/>
   </g>
   <g id="text_1">
    <!-- 1 -->
    <g style="fill: #ffffff" transform="translate(159.023437 73.129069) scale(0.12 -0.12)">
     <defs>
      <path id="ArialMT-14" d="M 2384 0 
L 1822 0 
L 1822 3584 
Q 1619 3391 1289 3197 
Q 959 3003 697 2906 
L 697 3450 
Q 1169 3672 1522 3987 
Q 1875 4303 2022 4600 
L 2384 4600 
L 2384 0 
z
" transform="scale(0.015625)"/>
     </defs>
     <use xlink:href="#ArialMT-14"/>
    </g>
   </g>
   <g id="text_2">
    <!-- 2 -->
    <g style="fill: #ffffff" transform="translate(182.461962 76.090043) scale(0.12 -0.12)">
     <defs>
      <path id="ArialMT-15" d="M 3222 541 
L 3222 0 
L 194 0 
Q 188 203 259 391 
Q 375 700 629 1000 
Q 884 1300 1366 1694 
Q 2113 2306 2375 2664 
Q 2638 3022 2638 3341 
Q 2638 3675 2398 3904 
Q 2159 4134 1775 4134 
Q 1369 4134 1125 3890 
Q 881 3647 878 3216 
L 300 3275 
Q 359 3922 746 4261 
Q 1134 4600 1788 4600 
Q 2447 4600 2831 4234 
Q 3216 3869 3216 3328 
Q 3216 3053 3103 2787 
Q 2991 2522 2730 2228 
Q 2469 1934 1863 1422 
Q 1356 997 1212 845 
Q 1069 694 975 541 
L 3222 541 
z
" transform="scale(0.015625)"/>
     </defs>
     <use xlink:href="#ArialMT-15"/>
    </g>
   </g>
   <g id="text_3">
    <!-- 3 -->
    <g style="fill: #ffffff" transform="translate(204.427758 84.786917) scale(0.12 -0.12)">
     <defs>
      <path id="ArialMT-16" d="M 269 1209 
L 831 1284 
Q 928 806 1161 595 
Q 1394 384 1728 384 
Q 2125 384 2398 659 
Q 2672 934 2672 1341 
Q 2672 1728 2419 1979 
Q 2166 2231 1775 2231 
Q 1616 2231 1378 2169 
L 1441 2663 
Q 1497 2656 1531 2656 
Q 1891 2656 2178 2843 
Q 2466 3031 2466 3422 
Q 2466 3731 2256 3934 
Q 2047 4138 1716 4138 
Q 1388 4138 1169 3931 
Q 950 3725 888 3313 
L 325 3413 
Q 428 3978 793 4289 
Q 1159 4600 1703 4600 
Q 2078 4600 2393 4439 
Q 2709 4278 2876 4000 
Q 3044 3722 3044 3409 
Q 3044 3113 2884 2869 
Q 2725 2625 2413 2481 
Q 2819 2388 3044 2092 
Q 3269 1797 3269 1353 
Q 3269 753 2831 336 
Q 2394 -81 1725 -81 
Q 1122 -81 723 278 
Q 325 638 269 1209 
z
" transform="scale(0.015625)"/>
     </defs>
     <use xlink:href="#ArialMT-16"/>
    </g>
   </g>
   <g id="text_4">
    <!-- 4 -->
    <g style="fill: #ffffff" transform="translate(223.540633 98.673233) scale(0.12 -0.12)">
     <defs>
      <path id="ArialMT-17" d="M 2069 0 
L 2069 1097 
L 81 1097 
L 81 1613 
L 2172 4581 
L 2631 4581 
L 2631 1613 
L 3250 1613 
L 3250 1097 
L 2631 1097 
L 2631 0 
L 2069 0 
z
M 2069 1613 
L 2069 3678 
L 634 1613 
L 2069 1613 
z
" transform="scale(0.015625)"/>
     </defs>
     <use xlink:href="#ArialMT-17"/>
    </g>
   </g>
   <g id="text_5">
    <!-- 5 -->
    <g style="fill: #ffffff" transform="translate(238.599656 116.876465) scale(0.12 -0.12)">
     <defs>
      <path id="ArialMT-18" d="M 266 1200 
L 856 1250 
Q 922 819 1161 601 
Q 1400 384 1738 384 
Q 2144 384 2425 690 
Q 2706 997 2706 1503 
Q 2706 1984 2436 2262 
Q 2166 2541 1728 2541 
Q 1456 2541 1237 2417 
Q 1019 2294 894 2097 
L 366 2166 
L 809 4519 
L 3088 4519 
L 3088 3981 
L 1259 3981 
L 1013 2750 
Q 1425 3038 1878 3038 
Q 2478 3038 2890 2622 
Q 3303 2206 3303 1553 
Q 3303 931 2941 478 
Q 2500 -78 1738 -78 
Q 1113 -78 717 272 
Q 322 622 266 1200 
z
" transform="scale(0.015625)"/>
     </defs>
     <use xlink:href="#ArialMT-18"/>
    </g>
   </g>
   <g id="text_6">
    <!-- 6 -->
    <g style="fill: #ffffff" transform="translate(248.658612 138.252835) scale(0.12 -0.12)">
     <defs>
      <path id="ArialMT-19" d="M 3184 3459 
L 2625 3416 
Q 2550 3747 2413 3897 
Q 2184 4138 1850 4138 
Q 1581 4138 1378 3988 
Q 1113 3794 959 3422 
Q 806 3050 800 2363 
Q 1003 2672 1297 2822 
Q 1591 2972 1913 2972 
Q 2475 2972 2870 2558 
Q 3266 2144 3266 1488 
Q 3266 1056 3080 686 
Q 2894 316 2569 119 
Q 2244 -78 1831 -78 
Q 1128 -78 684 439 
Q 241 956 241 2144 
Q 241 3472 731 4075 
Q 1159 4600 1884 4600 
Q 2425 4600 2770 4297 
Q 3116 3994 3184 3459 
z
M 888 1484 
Q 888 1194 1011 928 
Q 1134 663 1356 523 
Q 1578 384 1822 384 
Q 2178 384 2434 671 
Q 2691 959 2691 1453 
Q 2691 1928 2437 2201 
Q 2184 2475 1800 2475 
Q 1419 2475 1153 2201 
Q 888 1928 888 1484 
z
" transform="scale(0.015625)"/>
     </defs>
     <use xlink:href="#ArialMT-19"/>
    </g>
   </g>
   <g id="text_7">
    <!-- 7 -->
    <g style="fill: #ffffff" transform="translate(253.085461 161.459188) scale(0.12 -0.12)">
     <defs>
      <path id="ArialMT-1a" d="M 303 3981 
L 303 4522 
L 3269 4522 
L 3269 4084 
Q 2831 3619 2401 2847 
Q 1972 2075 1738 1259 
Q 1569 684 1522 0 
L 944 0 
Q 953 541 1156 1306 
Q 1359 2072 1739 2783 
Q 2119 3494 2547 3981 
L 303 3981 
z
" transform="scale(0.015625)"/>
     </defs>
     <use xlink:href="#ArialMT-1a"/>
    </g>
   </g>
   <g id="text_8">
    <!-- 8 -->
    <g style="fill: #ffffff" transform="translate(251.602047 185.037383) scale(0.12 -0.12)">
     <defs>
      <path id="ArialMT-1b" d="M 1131 2484 
Q 781 2613 612 2850 
Q 444 3088 444 3419 
Q 444 3919 803 4259 
Q 1163 4600 1759 4600 
Q 2359 4600 2725 4251 
Q 3091 3903 3091 3403 
Q 3091 3084 2923 2848 
Q 2756 2613 2416 2484 
Q 2838 2347 3058 2040 
Q 3278 1734 3278 1309 
Q 3278 722 2862 322 
Q 2447 -78 1769 -78 
Q 1091 -78 675 323 
Q 259 725 259 1325 
Q 259 1772 486 2073 
Q 713 2375 1131 2484 
z
M 1019 3438 
Q 1019 3113 1228 2906 
Q 1438 2700 1772 2700 
Q 2097 2700 2305 2904 
Q 2513 3109 2513 3406 
Q 2513 3716 2298 3927 
Q 2084 4138 1766 4138 
Q 1444 4138 1231 3931 
Q 1019 3725 1019 3438 
z
M 838 1322 
Q 838 1081 952 856 
Q 1066 631 1291 507 
Q 1516 384 1775 384 
Q 2178 384 2440 643 
Q 2703 903 2703 1303 
Q 2703 1709 2433 1975 
Q 2163 2241 1756 2241 
Q 1359 2241 1098 1978 
Q 838 1716 838 1322 
z
" transform="scale(0.015625)"/>
     </defs>
     <use xlink:href="#ArialMT-1b"/>
    </g>
   </g>
   <g id="text_9">
    <!-- 9 -->
    <g style="fill: #ffffff" transform="translate(244.301578 207.505916) scale(0.12 -0.12)">
     <defs>
      <path id="ArialMT-1c" d="M 350 1059 
L 891 1109 
Q 959 728 1153 556 
Q 1347 384 1650 384 
Q 1909 384 2104 503 
Q 2300 622 2425 820 
Q 2550 1019 2634 1356 
Q 2719 1694 2719 2044 
Q 2719 2081 2716 2156 
Q 2547 1888 2255 1720 
Q 1963 1553 1622 1553 
Q 1053 1553 659 1965 
Q 266 2378 266 3053 
Q 266 3750 677 4175 
Q 1088 4600 1706 4600 
Q 2153 4600 2523 4359 
Q 2894 4119 3086 3673 
Q 3278 3228 3278 2384 
Q 3278 1506 3087 986 
Q 2897 466 2520 194 
Q 2144 -78 1638 -78 
Q 1100 -78 759 220 
Q 419 519 350 1059 
z
M 2653 3081 
Q 2653 3566 2395 3850 
Q 2138 4134 1775 4134 
Q 1400 4134 1122 3828 
Q 844 3522 844 3034 
Q 844 2597 1108 2323 
Q 1372 2050 1759 2050 
Q 2150 2050 2401 2323 
Q 2653 2597 2653 3081 
z
" transform="scale(0.015625)"/>
     </defs>
     <use xlink:href="#ArialMT-1c"/>
    </g>
   </g>
   <g id="text_10">
    <!-- 10 -->
    <g style="fill: #ffffff" transform="translate(228.306207 227.453005) scale(0.12 -0.12)">
     <defs>
      <path id="ArialMT-13" d="M 266 2259 
Q 266 3072 433 3567 
Q 600 4063 929 4331 
Q 1259 4600 1759 4600 
Q 2128 4600 2406 4451 
Q 2684 4303 2865 4023 
Q 3047 3744 3150 3342 
Q 3253 2941 3253 2259 
Q 3253 1453 3087 958 
Q 2922 463 2592 192 
Q 2263 -78 1759 -78 
Q 1097 -78 719 397 
Q 266 969 266 2259 
z
M 844 2259 
Q 844 1131 1108 757 
Q 1372 384 1759 384 
Q 2147 384 2411 759 
Q 2675 1134 2675 2259 
Q 2675 3391 2411 3762 
Q 2147 4134 1753 4134 
Q 1366 4134 1134 3806 
Q 844 3388 844 2259 
z
" transform="scale(0.015625)"/>
     </defs>
     <use xlink:href="#ArialMT-14"/>
     <use xlink:href="#ArialMT-13" transform="translate(55.609375 0)"/>
    </g>
   </g>
   <g id="text_11">
    <!-- 11 -->
    <g style="fill: #ffffff" transform="translate(211.529772 243.625302) scale(0.12 -0.12)">
     <use xlink:href="#ArialMT-14"/>
     <use xlink:href="#ArialMT-14" transform="translate(48.1875 0)"/>
    </g>
   </g>
   <g id="text_12">
    <!-- 12 -->
    <g style="fill: #ffffff" transform="translate(190.381878 255.006643) scale(0.12 -0.12)">
     <use xlink:href="#ArialMT-14"/>
     <use xlink:href="#ArialMT-15" transform="translate(55.609375 0)"/>
    </g>
   </g>
   <g id="text_13">
    <!-- 13 -->
    <g style="fill: #ffffff" transform="translate(167.499282 260.881895) scale(0.12 -0.12)">
     <use xlink:href="#ArialMT-14"/>
     <use xlink:href="#ArialMT-16" transform="translate(55.609375 0)"/>
    </g>
   </g>
   <g id="text_14">
    <!-- 14 -->
    <g style="fill: #ffffff" transform="translate(143.874468 260.881895) scale(0.12 -0.12)">
     <use xlink:href="#ArialMT-14"/>
     <use xlink:href="#ArialMT-17" transform="translate(55.609375 0)"/>
    </g>
   </g>
   <g id="text_15">
    <!-- 15 -->
    <g style="fill: #ffffff" transform="translate(120.991872 255.006643) scale(0.12 -0.12)">
     <use xlink:href="#ArialMT-14"/>
     <use xlink:href="#ArialMT-18" transform="translate(55.609375 0)"/>
    </g>
   </g>
   <g id="text_16">
    <!-- 16 -->
    <g style="fill: #ffffff" transform="translate(100.28929 243.625302) scale(0.12 -0.12)">
     <use xlink:href="#ArialMT-14"/>
     <use xlink:href="#ArialMT-19" transform="translate(55.609375 0)"/>
    </g>
   </g>
   <g id="text_17">
    <!-- 17 -->
    <g style="fill: #ffffff" transform="translate(83.067543 227.453005) scale(0.12 -0.12)">
     <use xlink:href="#ArialMT-14"/>
     <use xlink:href="#ArialMT-1a" transform="translate(55.609375 0)"/>
    </g>
   </g>
   <g id="text_18">
    <!-- 18 -->
    <g style="fill: #ffffff" transform="translate(70.408735 207.505916) scale(0.12 -0.12)">
     <use xlink:href="#ArialMT-14"/>
     <use xlink:href="#ArialMT-1b" transform="translate(55.609375 0)"/>
    </g>
   </g>
   <g id="text_19">
    <!-- 19 -->
    <g style="fill: #ffffff" transform="translate(63.108266 185.037383) scale(0.12 -0.12)">
     <use xlink:href="#ArialMT-14"/>
     <use xlink:href="#ArialMT-1c" transform="translate(55.609375 0)"/>
    </g>
   </g>
   <g id="text_20">
    <!-- 20 -->
    <g style="fill: #ffffff" transform="translate(61.624852 161.459188) scale(0.12 -0.12)">
     <use xlink:href="#ArialMT-15"/>
     <use xlink:href="#ArialMT-13" transform="translate(55.609375 0)"/>
    </g>
   </g>
   <g id="text_21">
    <!-- 21 -->
    <g style="fill: #ffffff" transform="translate(66.0517 138.252835) scale(0.12 -0.12)">
     <use xlink:href="#ArialMT-15"/>
     <use xlink:href="#ArialMT-14" transform="translate(55.609375 0)"/>
    </g>
   </g>
   <g id="text_22">
    <!-- 22 -->
    <g style="fill: #ffffff" transform="translate(76.110657 116.876465) scale(0.12 -0.12)">
     <use xlink:href="#ArialMT-15"/>
     <use xlink:href="#ArialMT-15" transform="translate(55.609375 0)"/>
    </g>
   </g>
   <g id="text_23">
    <!-- 23 -->
    <g style="fill: #ffffff" transform="translate(91.169679 98.673233) scale(0.12 -0.12)">
     <use xlink:href="#ArialMT-15"/>
     <use xlink:href="#ArialMT-16" transform="translate(55.609375 0)"/>
    </g>
   </g>
   <g id="text_24">
    <!-- 24 -->
    <g style="fill: #ffffff" transform="translate(110.282555 84.786917) scale(0.12 -0.12)">
     <use xlink:href="#ArialMT-15"/>
     <use xlink:href="#ArialMT-17" transform="translate(55.609375 0)"/>
    </g>
   </g>
   <g id="text_25">
    <!-- 25 -->
    <g style="fill: #ffffff" transform="translate(132.24835 76.090043) scale(0.12 -0.12)">
     <use xlink:href="#ArialMT-15"/>
     <use xlink:href="#ArialMT-18" transform="translate(55.609375 0)"/>
    </g>
   </g>
   <g id="text_26">
    <!-- N=25, edges=50, mean_degree=4.00, hash=a580afacd728 -->
    <g style="fill: #111827" transform="translate(-79.51375 31.472) scale(0.16 -0.16)">
     <defs>
      <path id="DejaVuSans-31" d="M 628 4666 
L 1478 4666 
L 3547 763 
L 3547 4666 
L 4159 4666 
L 4159 0 
L 3309 0 
L 1241 3903 
L 1241 0 
L 628 0 
L 628 4666 
z
" transform="scale(0.015625)"/>
      <path id="DejaVuSans-20" d="M 678 2906 
L 4684 2906 
L 4684 2381 
L 678 2381 
L 678 2906 
z
M 678 1631 
L 4684 1631 
L 4684 1100 
L 678 1100 
L 678 1631 
z
" transform="scale(0.015625)"/>
      <path id="DejaVuSans-15" d="M 1228 531 
L 3431 531 
L 3431 0 
L 469 0 
L 469 531 
Q 828 903 1448 1529 
Q 2069 2156 2228 2338 
Q 2531 2678 2651 2914 
Q 2772 3150 2772 3378 
Q 2772 3750 2511 3984 
Q 2250 4219 1831 4219 
Q 1534 4219 1204 4116 
Q 875 4013 500 3803 
L 500 4441 
Q 881 4594 1212 4672 
Q 1544 4750 1819 4750 
Q 2544 4750 2975 4387 
Q 3406 4025 3406 3419 
Q 3406 3131 3298 2873 
Q 3191 2616 2906 2266 
Q 2828 2175 2409 1742 
Q 1991 1309 1228 531 
z
" transform="scale(0.015625)"/>
      <path id="DejaVuSans-18" d="M 691 4666 
L 3169 4666 
L 3169 4134 
L 1269 4134 
L 1269 2991 
Q 1406 3038 1543 3061 
Q 1681 3084 1819 3084 
Q 2600 3084 3056 2656 
Q 3513 2228 3513 1497 
Q 3513 744 3044 326 
Q 2575 -91 1722 -91 
Q 1428 -91 1123 -41 
Q 819 9 494 109 
L 494 744 
Q 775 591 1075 516 
Q 1375 441 1709 441 
Q 2250 441 2565 725 
Q 2881 1009 2881 1497 
Q 2881 1984 2565 2268 
Q 2250 2553 1709 2553 
Q 1456 2553 1204 2497 
Q 953 2441 691 2322 
L 691 4666 
z
" transform="scale(0.015625)"/>
      <path id="DejaVuSans-f" d="M 750 794 
L 1409 794 
L 1409 256 
L 897 -744 
L 494 -744 
L 750 256 
L 750 794 
z
" transform="scale(0.015625)"/>
      <path id="DejaVuSans-3" transform="scale(0.015625)"/>
      <path id="DejaVuSans-48" d="M 3597 1894 
L 3597 1613 
L 953 1613 
Q 991 1019 1311 708 
Q 1631 397 2203 397 
Q 2534 397 2845 478 
Q 3156 559 3463 722 
L 3463 178 
Q 3153 47 2828 -22 
Q 2503 -91 2169 -91 
Q 1331 -91 842 396 
Q 353 884 353 1716 
Q 353 2575 817 3079 
Q 1281 3584 2069 3584 
Q 2775 3584 3186 3129 
Q 3597 2675 3597 1894 
z
M 3022 2063 
Q 3016 2534 2758 2815 
Q 2500 3097 2075 3097 
Q 1594 3097 1305 2825 
Q 1016 2553 972 2059 
L 3022 2063 
z
" transform="scale(0.015625)"/>
      <path id="DejaVuSans-47" d="M 2906 2969 
L 2906 4863 
L 3481 4863 
L 3481 0 
L 2906 0 
L 2906 525 
Q 2725 213 2448 61 
Q 2172 -91 1784 -91 
Q 1150 -91 751 415 
Q 353 922 353 1747 
Q 353 2572 751 3078 
Q 1150 3584 1784 3584 
Q 2172 3584 2448 3432 
Q 2725 3281 2906 2969 
z
M 947 1747 
Q 947 1113 1208 752 
Q 1469 391 1925 391 
Q 2381 391 2643 752 
Q 2906 1113 2906 1747 
Q 2906 2381 2643 2742 
Q 2381 3103 1925 3103 
Q 1469 3103 1208 2742 
Q 947 2381 947 1747 
z
" transform="scale(0.015625)"/>
      <path id="DejaVuSans-4a" d="M 2906 1791 
Q 2906 2416 2648 2759 
Q 2391 3103 1925 3103 
Q 1463 3103 1205 2759 
Q 947 2416 947 1791 
Q 947 1169 1205 825 
Q 1463 481 1925 481 
Q 2391 481 2648 825 
Q 2906 1169 2906 1791 
z
M 3481 434 
Q 3481 -459 3084 -895 
Q 2688 -1331 1869 -1331 
Q 1566 -1331 1297 -1286 
Q 1028 -1241 775 -1147 
L 775 -588 
Q 1028 -725 1275 -790 
Q 1522 -856 1778 -856 
Q 2344 -856 2625 -561 
Q 2906 -266 2906 331 
L 2906 616 
Q 2728 306 2450 153 
Q 2172 0 1784 0 
Q 1141 0 747 490 
Q 353 981 353 1791 
Q 353 2603 747 3093 
Q 1141 3584 1784 3584 
Q 2172 3584 2450 3431 
Q 2728 3278 2906 2969 
L 2906 3500 
L 3481 3500 
L 3481 434 
z
" transform="scale(0.015625)"/>
      <path id="DejaVuSans-56" d="M 2834 3397 
L 2834 2853 
Q 2591 2978 2328 3040 
Q 2066 3103 1784 3103 
Q 1356 3103 1142 2972 
Q 928 2841 928 2578 
Q 928 2378 1081 2264 
Q 1234 2150 1697 2047 
L 1894 2003 
Q 2506 1872 2764 1633 
Q 3022 1394 3022 966 
Q 3022 478 2636 193 
Q 2250 -91 1575 -91 
Q 1294 -91 989 -36 
Q 684 19 347 128 
L 347 722 
Q 666 556 975 473 
Q 1284 391 1588 391 
Q 1994 391 2212 530 
Q 2431 669 2431 922 
Q 2431 1156 2273 1281 
Q 2116 1406 1581 1522 
L 1381 1569 
Q 847 1681 609 1914 
Q 372 2147 372 2553 
Q 372 3047 722 3315 
Q 1072 3584 1716 3584 
Q 2034 3584 2315 3537 
Q 2597 3491 2834 3397 
z
" transform="scale(0.015625)"/>
      <path id="DejaVuSans-13" d="M 2034 4250 
Q 1547 4250 1301 3770 
Q 1056 3291 1056 2328 
Q 1056 1369 1301 889 
Q 1547 409 2034 409 
Q 2525 409 2770 889 
Q 3016 1369 3016 2328 
Q 3016 3291 2770 3770 
Q 2525 4250 2034 4250 
z
M 2034 4750 
Q 2819 4750 3233 4129 
Q 3647 3509 3647 2328 
Q 3647 1150 3233 529 
Q 2819 -91 2034 -91 
Q 1250 -91 836 529 
Q 422 1150 422 2328 
Q 422 3509 836 4129 
Q 1250 4750 2034 4750 
z
" transform="scale(0.015625)"/>
      <path id="DejaVuSans-50" d="M 3328 2828 
Q 3544 3216 3844 3400 
Q 4144 3584 4550 3584 
Q 5097 3584 5394 3201 
Q 5691 2819 5691 2113 
L 5691 0 
L 5113 0 
L 5113 2094 
Q 5113 2597 4934 2840 
Q 4756 3084 4391 3084 
Q 3944 3084 3684 2787 
Q 3425 2491 3425 1978 
L 3425 0 
L 2847 0 
L 2847 2094 
Q 2847 2600 2669 2842 
Q 2491 3084 2119 3084 
Q 1678 3084 1418 2786 
Q 1159 2488 1159 1978 
L 1159 0 
L 581 0 
L 581 3500 
L 1159 3500 
L 1159 2956 
Q 1356 3278 1631 3431 
Q 1906 3584 2284 3584 
Q 2666 3584 2933 3390 
Q 3200 3197 3328 2828 
z
" transform="scale(0.015625)"/>
      <path id="DejaVuSans-44" d="M 2194 1759 
Q 1497 1759 1228 1600 
Q 959 1441 959 1056 
Q 959 750 1161 570 
Q 1363 391 1709 391 
Q 2188 391 2477 730 
Q 2766 1069 2766 1631 
L 2766 1759 
L 2194 1759 
z
M 3341 1997 
L 3341 0 
L 2766 0 
L 2766 531 
Q 2569 213 2275 61 
Q 1981 -91 1556 -91 
Q 1019 -91 701 211 
Q 384 513 384 1019 
Q 384 1609 779 1909 
Q 1175 2209 1959 2209 
L 2766 2209 
L 2766 2266 
Q 2766 2663 2505 2880 
Q 2244 3097 1772 3097 
Q 1472 3097 1187 3025 
Q 903 2953 641 2809 
L 641 3341 
Q 956 3463 1253 3523 
Q 1550 3584 1831 3584 
Q 2591 3584 2966 3190 
Q 3341 2797 3341 1997 
z
" transform="scale(0.015625)"/>
      <path id="DejaVuSans-51" d="M 3513 2113 
L 3513 0 
L 2938 0 
L 2938 2094 
Q 2938 2591 2744 2837 
Q 2550 3084 2163 3084 
Q 1697 3084 1428 2787 
Q 1159 2491 1159 1978 
L 1159 0 
L 581 0 
L 581 3500 
L 1159 3500 
L 1159 2956 
Q 1366 3272 1645 3428 
Q 1925 3584 2291 3584 
Q 2894 3584 3203 3211 
Q 3513 2838 3513 2113 
z
" transform="scale(0.015625)"/>
      <path id="DejaVuSans-42" d="M 3263 -1063 
L 3263 -1509 
L -63 -1509 
L -63 -1063 
L 3263 -1063 
z
" transform="scale(0.015625)"/>
      <path id="DejaVuSans-55" d="M 2631 2963 
Q 2534 3019 2420 3045 
Q 2306 3072 2169 3072 
Q 1681 3072 1420 2755 
Q 1159 2438 1159 1844 
L 1159 0 
L 581 0 
L 581 3500 
L 1159 3500 
L 1159 2956 
Q 1341 3275 1631 3429 
Q 1922 3584 2338 3584 
Q 2397 3584 2469 3576 
Q 2541 3569 2628 3553 
L 2631 2963 
z
" transform="scale(0.015625)"/>
      <path id="DejaVuSans-17" d="M 2419 4116 
L 825 1625 
L 2419 1625 
L 2419 4116 
z
M 2253 4666 
L 3047 4666 
L 3047 1625 
L 3713 1625 
L 3713 1100 
L 3047 1100 
L 3047 0 
L 2419 0 
L 2419 1100 
L 313 1100 
L 313 1709 
L 2253 4666 
z
" transform="scale(0.015625)"/>
      <path id="DejaVuSans-11" d="M 684 794 
L 1344 794 
L 1344 0 
L 684 0 
L 684 794 
z
" transform="scale(0.015625)"/>
      <path id="DejaVuSans-4b" d="M 3513 2113 
L 3513 0 
L 2938 0 
L 2938 2094 
Q 2938 2591 2744 2837 
Q 2550 3084 2163 3084 
Q 1697 3084 1428 2787 
Q 1159 2491 1159 1978 
L 1159 0 
L 581 0 
L 581 4863 
L 1159 4863 
L 1159 2956 
Q 1366 3272 1645 3428 
Q 1925 3584 2291 3584 
Q 2894 3584 3203 3211 
Q 3513 2838 3513 2113 
z
" transform="scale(0.015625)"/>
      <path id="DejaVuSans-1b" d="M 2034 2216 
Q 1584 2216 1326 1975 
Q 1069 1734 1069 1313 
Q 1069 891 1326 650 
Q 1584 409 2034 409 
Q 2484 409 2743 651 
Q 3003 894 3003 1313 
Q 3003 1734 2745 1975 
Q 2488 2216 2034 2216 
z
M 1403 2484 
Q 997 2584 770 2862 
Q 544 3141 544 3541 
Q 544 4100 942 4425 
Q 1341 4750 2034 4750 
Q 2731 4750 3128 4425 
Q 3525 4100 3525 3541 
Q 3525 3141 3298 2862 
Q 3072 2584 2669 2484 
Q 3125 2378 3379 2068 
Q 3634 1759 3634 1313 
Q 3634 634 3220 271 
Q 2806 -91 2034 -91 
Q 1263 -91 848 271 
Q 434 634 434 1313 
Q 434 1759 690 2068 
Q 947 2378 1403 2484 
z
M 1172 3481 
Q 1172 3119 1398 2916 
Q 1625 2713 2034 2713 
Q 2441 2713 2670 2916 
Q 2900 3119 2900 3481 
Q 2900 3844 2670 4047 
Q 2441 4250 2034 4250 
Q 1625 4250 1398 4047 
Q 1172 3844 1172 3481 
z
" transform="scale(0.015625)"/>
      <path id="DejaVuSans-49" d="M 2375 4863 
L 2375 4384 
L 1825 4384 
Q 1516 4384 1395 4259 
Q 1275 4134 1275 3809 
L 1275 3500 
L 2222 3500 
L 2222 3053 
L 1275 3053 
L 1275 0 
L 697 0 
L 697 3053 
L 147 3053 
L 147 3500 
L 697 3500 
L 697 3744 
Q 697 4328 969 4595 
Q 1241 4863 1831 4863 
L 2375 4863 
z
" transform="scale(0.015625)"/>
      <path id="DejaVuSans-46" d="M 3122 3366 
L 3122 2828 
Q 2878 2963 2633 3030 
Q 2388 3097 2138 3097 
Q 1578 3097 1268 2742 
Q 959 2388 959 1747 
Q 959 1106 1268 751 
Q 1578 397 2138 397 
Q 2388 397 2633 464 
Q 2878 531 3122 666 
L 3122 134 
Q 2881 22 2623 -34 
Q 2366 -91 2075 -91 
Q 1284 -91 818 406 
Q 353 903 353 1747 
Q 353 2603 823 3093 
Q 1294 3584 2113 3584 
Q 2378 3584 2631 3529 
Q 2884 3475 3122 3366 
z
" transform="scale(0.015625)"/>
      <path id="DejaVuSans-1a" d="M 525 4666 
L 3525 4666 
L 3525 4397 
L 1831 0 
L 1172 0 
L 2766 4134 
L 525 4134 
L 525 4666 
z
" transform="scale(0.015625)"/>
     </defs>
     <use xlink:href="#DejaVuSans-31"/>
     <use xlink:href="#DejaVuSans-20" transform="translate(74.8125 0)"/>
     <use xlink:href="#DejaVuSans-15" transform="translate(158.609375 0)"/>
     <use xlink:href="#DejaVuSans-18" transform="translate(222.234375 0)"/>
     <use xlink:href="#DejaVuSans-f" transform="translate(285.859375 0)"/>
     <use xlink:href="#DejaVuSans-3" transform="translate(317.640625 0)"/>
     <use xlink:href="#DejaVuSans-48" transform="translate(349.421875 0)"/>
     <use xlink:href="#DejaVuSans-47" transform="translate(410.953125 0)"/>
     <use xlink:href="#DejaVuSans-4a" transform="translate(474.4375 0)"/>
     <use xlink:href="#DejaVuSans-48" transform="translate(537.921875 0)"/>
     <use xlink:href="#DejaVuSans-56" transform="translate(599.453125 0)"/>
     <use xlink:href="#DejaVuSans-20" transform="translate(651.546875 0)"/>
     <use xlink:href="#DejaVuSans-18" transform="translate(735.34375 0)"/>
     <use xlink:href="#DejaVuSans-13" transform="translate(798.96875 0)"/>
     <use xlink:href="#DejaVuSans-f" transform="translate(862.59375 0)"/>
     <use xlink:href="#DejaVuSans-3" transform="translate(894.375 0)"/>
     <use xlink:href="#DejaVuSans-50" transform="translate(926.15625 0)"/>
     <use xlink:href="#DejaVuSans-48" transform="translate(1023.5625 0)"/>
     <use xlink:href="#DejaVuSans-44" transform="translate(1085.09375 0)"/>
     <use xlink:href="#DejaVuSans-51" transform="translate(1146.375 0)"/>
     <use xlink:href="#DejaVuSans-42" transform="translate(1209.75 0)"/>
     <use xlink:href="#DejaVuSans-47" transform="translate(1259.75 0)"/>
     <use xlink:href="#DejaVuSans-48" transform="translate(1323.234375 0)"/>
     <use xlink:href="#DejaVuSans-4a" transform="translate(1384.765625 0)"/>
     <use xlink:href="#DejaVuSans-55" transform="translate(1448.25 0)"/>
     <use xlink:href="#DejaVuSans-48" transform="translate(1487.15625 0)"/>
     <use xlink:href="#DejaVuSans-48" transform="translate(1548.6875 0)"/>
     <use xlink:href="#DejaVuSans-20" transform="translate(1610.21875 0)"/>
     <use xlink:href="#DejaVuSans-17" transform="translate(1694.015625 0)"/>
     <use xlink:href="#DejaVuSans-11" transform="translate(1757.640625 0)"/>
     <use xlink:href="#DejaVuSans-13" transform="translate(1789.421875 0)"/>
     <use xlink:href="#DejaVuSans-13" transform="translate(1853.046875 0)"/>
     <use xlink:href="#DejaVuSans-f" transform="translate(1916.671875 0)"/>
     <use xlink:href="#DejaVuSans-3" transform="translate(1948.453125 0)"/>
     <use xlink:href="#DejaVuSans-4b" transform="translate(1980.234375 0)"/>
     <use xlink:href="#DejaVuSans-44" transform="translate(2043.609375 0)"/>
     <use xlink:href="#DejaVuSans-56" transform="translate(2104.890625 0)"/>
     <use xlink:href="#DejaVuSans-4b" transform="translate(2156.984375 0)"/>
     <use xlink:href="#DejaVuSans-20" transform="translate(2220.359375 0)"/>
     <use xlink:href="#DejaVuSans-44" transform="translate(2304.15625 0)"/>
     <use xlink:href="#DejaVuSans-18" transform="translate(2365.4375 0)"/>
     <use xlink:href="#DejaVuSans-1b" transform="translate(2429.0625 0)"/>
     <use xlink:href="#DejaVuSans-13" transform="translate(2492.6875 0)"/>
     <use xlink:href="#DejaVuSans-44" transform="translate(2556.3125 0)"/>
     <use xlink:href="#DejaVuSans-49" transform="translate(2617.59375 0)"/>
     <use xlink:href="#DejaVuSans-44" transform="translate(2652.796875 0)"/>
     <use xlink:href="#DejaVuSans-46" transform="translate(2714.078125 0)"/>
     <use xlink:href="#DejaVuSans-47" transform="translate(2769.0625 0)"/>
     <use xlink:href="#DejaVuSans-1a" transform="translate(2832.546875 0)"/>
     <use xlink:href="#DejaVuSans-15" transform="translate(2896.171875 0)"/>
     <use xlink:href="#DejaVuSans-1b" transform="translate(2959.796875 0)"/>
    </g>
   </g>
  </g>
 </g>
 <defs>
  <clipPath id="pfa75cfa4c1">
   <rect x="40.392" y="41.472" width="243.936" height="266.112"/>
  </clipPath>
 </defs>
</svg>
